<svg width="64" height="64" viewBox="0 0 64 64" fill="none" xmlns="http://www.w3.org/2000/svg">
<circle cx="32" cy="32" r="32" fill="#D9D9D9" fill-opacity="0.7"/>
<g clip-path="url(#clip0_47_3137)">
<path d="M19.6922 28.6288C17.5553 28.4174 15.3524 28.9657 13.5656 30.1514C13.9817 31.2248 15.2302 31.6938 16.3597 31.9382C19.0878 32.5294 21.9051 32.5525 24.6992 32.569C31.7044 32.6152 38.8748 32.635 45.4803 30.3066C46.5075 29.9433 47.7262 29.1374 47.4323 28.0904C47.2638 27.4926 46.6462 27.1425 46.0517 26.9576C43.8818 26.2805 41.5599 26.9741 39.3273 27.4034C33.7951 28.4669 28.1011 27.8823 22.4798 27.4926C20.8746 27.3836 19.2298 27.2911 17.6907 27.7502" fill="#ED1C24"/>
<path d="M19.6922 28.2159C17.4728 28.0144 15.2236 28.5759 13.3542 29.7946C13.2155 29.8838 13.0933 30.0919 13.1659 30.2603C13.952 32.1231 16.3069 32.4104 18.0673 32.6482C20.4156 32.9653 22.7903 32.9686 25.155 32.9818C29.8252 33.0115 34.5184 33.0016 39.1456 32.2849C41.3816 31.9381 43.6837 31.4625 45.7941 30.6236C46.5505 30.3231 47.3729 29.8475 47.7296 29.0779C48.0863 28.3084 47.7494 27.453 47.0591 26.9741C46.2367 26.406 45.1105 26.2673 44.1361 26.2573C42.9835 26.2441 41.8374 26.4621 40.7145 26.6933C38.3431 27.1788 35.9882 27.5091 33.5639 27.5719C30.849 27.6445 28.1342 27.4794 25.4292 27.2878C24.0949 27.192 22.7605 27.0764 21.4229 27.0137C20.0853 26.9509 18.8302 26.9939 17.5785 27.3506C17.0698 27.4959 17.2845 28.2919 17.7964 28.1465C19.8739 27.5553 22.1099 27.8757 24.2303 28.0276C26.4629 28.1895 28.6956 28.3513 30.9349 28.4009C33.1742 28.4504 35.3904 28.3843 37.5999 28.0904C39.8095 27.7964 41.8341 27.0996 43.9875 27.083C44.8661 27.0764 46.1112 27.1491 46.785 27.8064C47.4587 28.4636 46.709 29.2166 46.1013 29.5667C45.2657 30.0522 44.2517 30.29 43.327 30.5477C42.2998 30.835 41.2561 31.0728 40.2091 31.2677C35.9618 32.0603 31.6219 32.166 27.3118 32.1627C24.8347 32.1627 22.3444 32.1957 19.8739 32.0075C18.6552 31.915 17.4298 31.7697 16.2441 31.4823C15.3887 31.2743 14.3384 30.9176 13.9652 30.0357L13.777 30.5014C15.5373 29.3554 17.6049 28.8467 19.6955 29.035C20.224 29.0845 20.2207 28.2555 19.6955 28.2093L19.6922 28.2159Z" fill="#231F20"/>
<path d="M16.4422 35.5976C15.4778 35.4589 14.4407 35.3301 13.5589 35.7165C12.677 36.1029 12.1321 37.2391 12.753 37.9261C12.9611 38.1573 13.2583 38.2993 13.5523 38.4281C19.6063 41.1331 26.661 41.0637 33.3723 40.5386C38.5973 40.129 43.8223 39.4751 48.8557 38.1341C50.0447 37.8171 51.4946 37.064 51.2271 35.9543C51.019 35.0989 49.906 34.7587 48.9614 34.6266C43.0858 33.8141 37.1474 35.2904 31.2156 35.6174C25.8485 35.9147 20.4749 35.264 15.1442 34.6134" fill="#99802F"/>
<path d="M16.5545 35.2013C15.3754 35.0328 13.9618 34.8347 12.9445 35.6141C12.175 36.202 11.7324 37.3679 12.4326 38.1837C12.8322 38.6494 13.4895 38.8608 14.0411 39.0887C14.6818 39.3529 15.3358 39.5907 15.9996 39.7988C17.3075 40.2116 18.6451 40.5155 19.9993 40.7334C25.6239 41.6483 31.417 41.219 37.0515 40.6245C40.0868 40.3041 43.1122 39.8714 46.0979 39.2274C47.4058 38.9466 48.8062 38.7121 50.0282 38.154C50.8704 37.7709 51.8084 37.0409 51.6531 36.0039C51.4913 34.9073 50.3056 34.4516 49.3478 34.2798C47.9276 34.0255 46.4579 33.9726 45.0179 33.9826C41.9892 34.0024 38.9837 34.4185 35.9814 34.7719C32.9792 35.1253 29.8383 35.3532 26.7403 35.264C23.6423 35.1749 20.5079 34.8512 17.4066 34.4846C16.6503 34.3954 15.8972 34.3029 15.1409 34.2105C14.6157 34.1477 14.6191 34.9734 15.1409 35.0361C20.7853 35.7231 26.4727 36.4002 32.1667 35.9774C37.6758 35.5679 43.2079 34.293 48.7467 35.0196C49.4073 35.1055 51.0983 35.3829 50.8208 36.4068C50.5797 37.2919 49.1893 37.6288 48.4362 37.827C45.728 38.5338 42.9734 39.0424 40.2024 39.4222C37.4314 39.8021 34.6802 40.0597 31.9091 40.2413C29.3594 40.4098 26.7964 40.489 24.2401 40.3569C21.6837 40.2248 19.1505 39.8714 16.6965 39.1514C16.0987 38.9764 15.5075 38.7782 14.9262 38.5602C14.3449 38.3422 13.691 38.1507 13.2055 37.7841C12.7992 37.4769 12.8455 37.0013 13.1163 36.6116C13.43 36.1591 13.9519 35.9642 14.4836 35.9048C15.098 35.8321 15.7255 35.918 16.3332 36.0039C16.8517 36.0765 17.0763 35.2839 16.5512 35.2079L16.5545 35.2013Z" fill="#231F20"/>
<path d="M20.0918 38.5602C20.6236 38.5602 20.6236 37.7345 20.0918 37.7345C19.5601 37.7345 19.5601 38.5602 20.0918 38.5602Z" fill="#8DC63F"/>
<path d="M25.6965 39.9407C26.2283 39.9407 26.2283 39.1151 25.6965 39.1151C25.1648 39.1151 25.1648 39.9407 25.6965 39.9407Z" fill="#8DC63F"/>
<path d="M25.0492 38.3621C25.5809 38.3621 25.5809 37.5364 25.0492 37.5364C24.5175 37.5364 24.5175 38.3621 25.0492 38.3621Z" fill="#8DC63F"/>
<path d="M33.8875 37.3745C34.4192 37.3745 34.4192 36.5488 33.8875 36.5488C33.3557 36.5488 33.3557 37.3745 33.8875 37.3745Z" fill="#8DC63F"/>
<path d="M31.0834 38.1639C31.6151 38.1639 31.6151 37.3382 31.0834 37.3382C30.5516 37.3382 30.5516 38.1639 31.0834 38.1639Z" fill="#8DC63F"/>
<path d="M39.9216 39.1514C40.4534 39.1514 40.4534 38.3257 39.9216 38.3257C39.3899 38.3257 39.3899 39.1514 39.9216 39.1514Z" fill="#8DC63F"/>
<path d="M41.431 36.5852C41.9628 36.5852 41.9628 35.7595 41.431 35.7595C40.8993 35.7595 40.8993 36.5852 41.431 36.5852Z" fill="#8DC63F"/>
<path d="M15.1179 26.439C14.4045 26.0592 13.7406 27.2944 14.2228 27.9418C14.705 28.5891 15.6298 28.6651 16.439 28.6882C18.4206 28.741 20.475 28.7807 22.2981 28.0012C22.9454 27.7238 23.5862 27.344 24.2864 27.3671C24.9866 27.3902 25.7165 28.0838 25.449 28.7344C25.8486 28.3348 26.2879 27.9154 26.846 27.8229C27.4042 27.7304 28.0747 28.1532 28.0053 28.7113C28.9598 27.4563 30.925 29.0977 32.4773 28.8401C33.6366 28.6486 34.3863 27.3902 35.5423 27.1689C36.5298 26.9807 37.5041 27.6049 38.5082 27.562C39.3966 27.5223 40.1728 26.9741 41.015 26.6867C41.8572 26.3994 43.0098 26.5183 43.3368 27.344C43.5185 27.7998 43.3798 28.315 43.4458 28.8038C43.5119 29.2926 43.9941 29.8078 44.4267 29.5767C45.0444 27.2779 47.9971 26.6999 50.3751 26.6504C50.6789 26.6438 51.0059 26.6339 51.2536 26.4588C51.7986 26.079 51.6235 25.2005 51.1842 24.7017C49.9457 23.3014 47.7196 23.6779 45.8833 24.028C37.012 25.7124 27.86 23.9322 18.8467 24.4739C17.268 24.5696 15.4679 24.8702 14.6423 26.2177" fill="#86C543"/>
<path d="M15.3259 26.0856C14.2723 25.6133 13.4136 26.832 13.701 27.8097C14.0775 29.0911 15.8247 29.0911 16.8848 29.1143C18.4504 29.1506 20.0555 29.144 21.5715 28.7014C22.3113 28.4867 22.9719 28.0673 23.7117 27.8625C24.0519 27.7667 24.4053 27.7337 24.719 27.9286C24.9734 28.0871 25.1517 28.3249 25.0493 28.6288C24.9172 29.0284 25.4556 29.3091 25.7396 29.0317C26.0468 28.7278 26.3903 28.3579 26.8262 28.2555C27.1499 28.1796 27.6057 28.3315 27.5892 28.7212C27.5727 29.0581 28.0648 29.2926 28.2927 29.0119C28.8574 28.3216 29.8813 28.8038 30.5848 29.0086C31.4964 29.2761 32.4112 29.4379 33.2997 28.9987C34.1881 28.5594 34.8487 27.5884 35.8758 27.5587C36.4803 27.5388 37.0615 27.7865 37.6461 27.9021C38.2307 28.0177 38.7922 28.0111 39.3603 27.8295C40.3247 27.5223 41.3353 26.6966 42.3988 27.05C42.9933 27.2449 43.0198 27.7469 43.0099 28.2985C43 28.85 43.0759 29.3752 43.4987 29.7616C43.8091 30.0456 44.4268 30.224 44.7438 29.8409C44.8726 29.6823 44.8991 29.4181 44.9915 29.2299C45.084 29.0416 45.1996 28.8666 45.3317 28.708C45.9196 28.0144 46.7982 27.6445 47.6602 27.4166C48.5949 27.1722 49.5395 27.1161 50.5006 27.0731C51.0026 27.05 51.531 26.9278 51.8118 26.4654C52.0496 26.079 52.043 25.5836 51.9009 25.1608C51.1942 23.0735 48.4462 23.1957 46.7123 23.4731C45.411 23.6812 44.1262 23.9355 42.815 24.0775C41.5038 24.2195 40.077 24.3087 38.703 24.345C35.9419 24.421 33.1775 24.3153 30.4163 24.1964C27.6552 24.0775 24.8247 23.9454 22.0273 23.9685C20.7326 23.9784 19.4247 23.9916 18.1366 24.1304C17.1524 24.2361 16.1153 24.4375 15.2797 24.999C14.8735 25.2698 14.5432 25.6133 14.279 26.0229C13.9916 26.472 14.705 26.8849 14.9924 26.439C15.719 25.3095 17.1887 25.0353 18.4339 24.9296C20.1546 24.7843 21.8985 24.7777 23.6258 24.7975C27.1697 24.8339 30.707 25.0717 34.2509 25.1608C37.7518 25.25 41.2693 25.1873 44.7372 24.6522C46.1574 24.4342 47.6007 24.0148 49.0473 24.1535C49.6584 24.2129 50.2793 24.4111 50.7318 24.8405C51.1842 25.2698 51.4881 26.1451 50.636 26.2375C49.9523 26.3135 49.2653 26.297 48.5817 26.3928C47.898 26.4886 47.2539 26.6372 46.6297 26.8816C45.4176 27.3605 44.397 28.1862 44.0271 29.4776L44.3145 29.1902C43.9512 29.3356 43.8455 28.7675 43.8356 28.5198C43.8223 28.0871 43.8818 27.661 43.7299 27.2449C43.5383 26.7131 43.0594 26.3597 42.521 26.2243C41.9431 26.079 41.3188 26.1418 40.764 26.3465C40.0208 26.6207 39.3074 27.1161 38.5016 27.159C37.7452 27.1987 37.0186 26.842 36.2755 26.7561C35.6083 26.6801 34.994 26.8486 34.4325 27.2086C33.9173 27.5388 33.4747 27.9814 32.9265 28.2621C32.3782 28.5429 31.8068 28.4801 31.2288 28.3315C30.1158 28.0508 28.6097 27.3275 27.7081 28.4306L28.4116 28.7212C28.4413 28.0144 27.8303 27.4926 27.1598 27.4199C26.3473 27.3308 25.6868 27.922 25.1517 28.4504L25.842 28.8533C26.2317 27.6809 24.9238 26.8519 23.8934 26.9906C23.2295 27.0798 22.6548 27.4232 22.0438 27.6709C21.4328 27.9187 20.7293 28.0937 20.0489 28.1862C18.7146 28.3711 17.3043 28.3612 15.9634 28.2621C15.4977 28.2258 14.7744 28.1333 14.5234 27.6643C14.4177 27.4662 14.5366 26.6372 14.9032 26.8056C15.3854 27.0203 15.8048 26.3102 15.3193 26.0922L15.3259 26.0856Z" fill="#231F20"/>
<path d="M51.1941 37.6123C50.7284 41.8234 46.9995 44.8883 43.2707 46.903C37.078 50.2521 29.4353 52.0091 23.0213 49.1093C18.731 47.1706 15.5669 43.4318 12.5548 39.812C14.7148 38.3191 17.5783 38.5668 20.1941 38.7947C28.286 39.5015 36.4438 39.4288 44.5224 38.5833C46.5966 38.3653 48.6873 38.0978 50.7647 38.3026" fill="#8B5E3C"/>
<path d="M50.7812 37.6123C50.4443 40.4659 48.4957 42.7713 46.2993 44.4722C43.9015 46.3284 41.0743 47.7056 38.2207 48.6965C35.2152 49.7401 32.0247 50.3346 28.8342 50.1233C25.6437 49.9119 22.7538 48.8253 20.2074 46.9955C17.3538 44.9478 15.0781 42.2065 12.8488 39.5246L12.7662 40.172C14.5992 38.9367 16.8649 38.9599 18.9886 39.1118C21.4988 39.2934 24.0056 39.5114 26.5223 39.6039C31.7176 39.7988 36.9227 39.6733 42.1015 39.2307C44.9716 38.9863 47.8814 38.4512 50.768 38.7188C51.2965 38.7683 51.2932 37.9426 50.768 37.8931C48.1456 37.652 45.5166 38.0945 42.9107 38.3356C40.2685 38.5767 37.6196 38.7386 34.9675 38.8145C29.7623 38.9665 24.5836 38.7353 19.3949 38.3191C17.0103 38.1276 14.4176 38.0648 12.35 39.4619C12.1155 39.6204 12.0891 39.8979 12.2675 40.1092C14.3548 42.6194 16.4752 45.1493 19.0646 47.1607C21.654 49.1721 24.6232 50.4734 27.8896 50.8631C31.1561 51.2528 34.5117 50.7508 37.6428 49.7633C40.7738 48.7757 43.6736 47.4084 46.2564 45.539C48.8392 43.6696 51.2139 40.9944 51.6135 37.6189C51.6763 37.0938 50.8506 37.0971 50.7878 37.6189L50.7812 37.6123Z" fill="#231F20"/>
<path d="M16.9674 32.4434C15.316 32.7605 13.7439 33.4277 12.4095 34.3855C14.2558 35.1947 16.2606 35.6868 18.2918 35.8255C20.2041 35.9576 22.1726 35.7892 23.9957 36.3407C25.8188 36.8923 27.5066 38.4842 27.2291 40.2512C28.1242 38.4182 29.2736 36.5257 31.2255 35.657C33.1741 34.7884 36.0608 35.5547 36.4967 37.533C36.8204 36.3638 38.1118 35.6306 39.39 35.4225C40.6682 35.2145 41.9761 35.4093 43.274 35.4325C45.7776 35.4787 48.2877 34.8644 50.4411 33.6853C50.778 33.5003 51.1281 33.2823 51.28 32.9455C51.5211 32.4071 51.1677 31.7895 50.7218 31.3766C48.6774 29.4874 45.3185 30.1414 42.5276 30.7557C33.7191 32.6978 24.4614 32.886 15.5538 31.3073" fill="#F9ED32"/>
<path d="M16.8584 32.0471C15.1872 32.3774 13.5953 33.0479 12.2015 34.0321C11.9802 34.1906 11.8911 34.6101 12.2015 34.7455C13.5854 35.3433 15.0254 35.7859 16.515 36.0336C18.0045 36.2813 19.5634 36.2747 21.1025 36.3407C22.5128 36.4002 23.9693 36.5686 25.1815 37.3481C26.1789 37.9888 26.9848 39.016 26.8196 40.2578C26.7668 40.6641 27.4174 40.8193 27.5892 40.4659C28.4941 38.6197 29.7393 36.4729 31.8597 35.8718C33.3691 35.4457 35.6777 35.8949 36.1005 37.6486C36.1995 38.0582 36.7808 38.0252 36.8964 37.6486C37.3984 36.0105 39.4891 35.7264 40.9357 35.7495C41.9134 35.7661 42.8844 35.8751 43.862 35.8519C44.7306 35.8321 45.5993 35.733 46.4547 35.5679C47.3629 35.3895 48.2547 35.1253 49.1134 34.7752C49.8367 34.4813 50.6855 34.1642 51.2734 33.6325C52.654 32.384 50.9134 30.7756 49.7409 30.2537C48.3901 29.6559 46.8642 29.6493 45.4209 29.8211C43.7596 30.0225 42.1379 30.4486 40.4932 30.759C36.652 31.489 32.7514 31.882 28.8442 31.948C24.4317 32.024 20.0126 31.6805 15.6661 30.9143C15.1476 30.8218 14.923 31.6178 15.4482 31.7102C22.8926 33.0182 30.5221 33.1238 37.9963 32.0141C39.7798 31.7499 41.5368 31.3866 43.3005 31.0167C44.757 30.7095 46.2565 30.442 47.7494 30.5807C48.4165 30.6434 49.0903 30.8119 49.6782 31.1356C50.1802 31.4097 51.2668 32.1528 50.8672 32.8464C50.6756 33.18 50.1769 33.3682 49.8499 33.5334C49.4503 33.7349 49.0408 33.9198 48.6213 34.0783C47.8022 34.3921 46.9534 34.6299 46.0914 34.7917C45.1104 34.9734 44.113 35.0461 43.1189 35.0196C42.1247 34.9932 41.0447 34.8644 40.0076 34.9404C38.4124 35.056 36.6091 35.7562 36.1005 37.4241H36.8964C36.3878 35.3202 33.8281 34.6068 31.9356 34.9998C29.4387 35.5151 27.9162 37.9228 26.8758 40.0432L27.6453 40.2512C27.9162 38.2233 26.0765 36.6314 24.3392 36.0204C21.9414 35.1749 19.286 35.6439 16.8089 35.2442C15.3689 35.013 13.9553 34.6068 12.6144 34.0288V34.7422C13.9553 33.7943 15.4647 33.1602 17.0731 32.8398C17.595 32.7374 17.3737 31.9414 16.8551 32.0438L16.8584 32.0471Z" fill="#231F20"/>
<path d="M40.3907 14.6481C33.8875 11.9564 26.301 13.9579 20.2206 17.505C16.9343 19.4207 13.6976 22.1917 12.829 25.7983C13.0271 25.9437 13.1758 26.1352 13.2815 26.3532C15.273 26.4457 17.2613 26.1319 19.2364 25.8611C27.282 24.758 35.4365 24.4244 43.5449 24.8703C46.1673 25.0156 49.0374 25.1708 51.1479 23.6086C48.0201 20.0878 44.7405 16.4515 40.3907 14.6514V14.6481Z" fill="#8B5E3C"/>
<path d="M40.4997 14.2485C36.3712 12.5608 31.7705 12.7193 27.533 13.9083C25.3895 14.5094 23.3153 15.3681 21.3469 16.4052C19.4808 17.3861 17.6841 18.5322 16.1186 19.9557C14.4143 21.5047 12.9941 23.4269 12.4327 25.6893C12.3996 25.8214 12.4261 25.9998 12.5384 26.0923C12.7365 26.2541 12.8158 26.4754 12.9908 26.6471C13.1923 26.8453 13.592 26.7825 13.8463 26.7825C14.52 26.7891 15.1905 26.7528 15.861 26.6967C17.2349 26.5745 18.5957 26.3565 19.9597 26.1781C22.6449 25.8247 25.34 25.5572 28.0416 25.3789C33.4318 25.0189 38.812 25.0486 44.2054 25.3194C46.6363 25.4416 49.295 25.4548 51.3593 23.9653C51.5839 23.8034 51.6334 23.5293 51.4418 23.3179C48.2844 19.7608 44.975 16.1311 40.4997 14.2551C40.0109 14.0503 39.7962 14.8496 40.2817 15.0511C44.6051 16.8643 47.8121 20.4742 50.8573 23.9025L50.9398 23.2552C49.1794 24.5267 46.9633 24.6027 44.8726 24.5267C42.3724 24.4343 39.8788 24.2889 37.3753 24.2724C32.2329 24.2394 27.0871 24.5168 21.9744 25.108C19.0944 25.4383 16.1912 26.0658 13.2782 25.9469L13.6349 26.1517C13.5028 25.904 13.3376 25.6926 13.1197 25.5143L13.2253 25.9172C14.203 21.9836 17.7799 19.3182 21.1487 17.4588C24.871 15.4045 29.0622 13.9413 33.3459 13.829C35.7206 13.7663 38.0755 14.1527 40.2751 15.0544C40.7672 15.2558 40.9819 14.4566 40.4931 14.2584L40.4997 14.2485Z" fill="#231F20"/>
<path d="M24.3656 22.6441C24.8974 22.6441 24.8974 21.8184 24.3656 21.8184C23.8339 21.8184 23.8339 22.6441 24.3656 22.6441Z" fill="#D7B091"/>
<path d="M30.5715 17.5149C31.1033 17.5149 31.1033 16.6892 30.5715 16.6892C30.0398 16.6892 30.0398 17.5149 30.5715 17.5149Z" fill="#D7B091"/>
<path d="M31.2882 18.7072C31.82 18.7072 31.82 17.8815 31.2882 17.8815C30.7565 17.8815 30.7565 18.7072 31.2882 18.7072Z" fill="#D7B091"/>
<path d="M37.0186 17.3927C37.5503 17.3927 37.5503 16.567 37.0186 16.567C36.4868 16.567 36.4868 17.3927 37.0186 17.3927Z" fill="#D7B091"/>
<path d="M40.361 20.4973C40.8927 20.4973 40.8927 19.6716 40.361 19.6716C39.8292 19.6716 39.8292 20.4973 40.361 20.4973Z" fill="#D7B091"/>
<path d="M34.6306 20.6162C35.1624 20.6162 35.1624 19.7905 34.6306 19.7905C34.0989 19.7905 34.0989 20.6162 34.6306 20.6162Z" fill="#D7B091"/>
<path d="M26.7535 18.945C27.2853 18.945 27.2853 18.1193 26.7535 18.1193C26.2218 18.1193 26.2218 18.945 26.7535 18.945Z" fill="#D7B091"/>
<path d="M21.8588 19.305C22.3905 19.305 22.3905 18.4793 21.8588 18.4793C21.327 18.4793 21.327 19.305 21.8588 19.305Z" fill="#D7B091"/>
<path d="M30.096 21.4518C30.6277 21.4518 30.6277 20.6261 30.096 20.6261C29.5642 20.6261 29.5642 21.4518 30.096 21.4518Z" fill="#D7B091"/>
<path d="M42.9867 22.6441C43.5184 22.6441 43.5184 21.8184 42.9867 21.8184C42.455 21.8184 42.455 22.6441 42.9867 22.6441Z" fill="#D7B091"/>
<path d="M42.8678 18.7072C43.3996 18.7072 43.3996 17.8815 42.8678 17.8815C42.3361 17.8815 42.3361 18.7072 42.8678 18.7072Z" fill="#D7B091"/>
<path d="M20.6665 22.0496C21.1983 22.0496 21.1983 21.2239 20.6665 21.2239C20.1348 21.2239 20.1348 22.0496 20.6665 22.0496Z" fill="#D7B091"/>
</g>
<defs>
<clipPath id="clip0_47_3137">
<rect width="40" height="37.9886" fill="white" transform="translate(12 13)"/>
</clipPath>
</defs>
</svg>
