<svg width="342" height="96" viewBox="0 0 342 96" fill="none" xmlns="http://www.w3.org/2000/svg">
<path d="M14.76 50.104L14.856 55H11.616L11.76 50.392L11.736 48.592L8.256 48.568L5.112 48.616L5.088 50.104L5.208 55H1.968L2.136 50.392L1.968 39.544H5.256L5.16 45.928L8.472 45.976L11.712 45.928L11.616 39.544H14.928L14.76 50.104ZM26.3462 49.816L19.8662 49.864C20.0102 51.864 21.0262 52.864 22.9142 52.864C23.9062 52.864 25.0102 52.584 26.2262 52.024L26.4902 52.192L26.0102 54.568C24.7942 55.016 23.6502 55.24 22.5782 55.24C20.8182 55.24 19.4342 54.728 18.4262 53.704C17.4342 52.68 16.9382 51.264 16.9382 49.456C16.9382 47.664 17.4262 46.248 18.4022 45.208C19.3782 44.152 20.6982 43.624 22.3622 43.624C23.7862 43.624 24.8822 44.016 25.6502 44.8C26.4342 45.568 26.8262 46.648 26.8262 48.04C26.8262 48.408 26.7862 48.872 26.7062 49.432L26.3462 49.816ZM24.0422 47.68C24.0422 47.04 23.8982 46.56 23.6102 46.24C23.3222 45.904 22.8982 45.736 22.3382 45.736C21.7142 45.736 21.1942 45.944 20.7782 46.36C20.3622 46.76 20.0822 47.344 19.9382 48.112L23.9942 48.016L24.0422 47.68ZM33.5385 52.648C34.0505 52.648 34.5865 52.512 35.1465 52.24L35.4105 52.48L35.0985 54.376C34.2825 54.792 33.4505 55.048 32.6025 55.144C30.4425 54.92 29.3625 53.864 29.3625 51.976L29.4825 49.984L29.4585 45.856H27.9705L27.8505 45.688L28.0185 43.936H29.4345V42.088L32.3385 41.152L32.5545 41.344L32.4825 43.936H35.3385L35.4345 44.104L35.2905 45.856H32.4345L32.2905 51.232C32.2905 51.744 32.3865 52.112 32.5785 52.336C32.7705 52.544 33.0905 52.648 33.5385 52.648ZM48.0407 39.352C49.7207 39.352 51.2327 39.664 52.5767 40.288L51.8807 43.216L51.5687 43.264C50.7847 42.816 50.0807 42.496 49.4567 42.304C48.8487 42.096 48.1927 41.992 47.4887 41.992C46.0647 41.992 45.0247 42.416 44.3687 43.264C43.7127 44.112 43.3847 45.504 43.3847 47.44C43.3847 48.72 43.5207 49.736 43.7927 50.488C44.0807 51.24 44.5207 51.792 45.1127 52.144C45.7047 52.48 46.4887 52.648 47.4647 52.648C47.8007 52.648 48.1127 52.624 48.4007 52.576C48.7047 52.528 49.0727 52.44 49.5047 52.312L49.5527 50.992L49.5047 48.544L52.5047 48.328L52.4327 50.488L52.5047 54.256C50.5847 54.896 48.8167 55.216 47.2007 55.216C44.8007 55.216 42.9927 54.56 41.7767 53.248C40.5767 51.936 39.9767 50.056 39.9767 47.608C39.9767 44.936 40.6727 42.896 42.0647 41.488C43.4727 40.064 45.4647 39.352 48.0407 39.352ZM60.8117 43.816C60.9557 43.816 61.1557 43.832 61.4117 43.864V46.816L61.0757 46.936C60.8037 46.824 60.5077 46.768 60.1877 46.768C59.2597 46.768 58.4197 47.368 57.6677 48.568V50.08L57.8357 55H54.6437L54.8357 50.392L54.6917 44.056L57.7157 43.792L57.6917 45.976H57.8837C58.6677 44.536 59.6437 43.816 60.8117 43.816ZM67.6194 43.624C69.2514 43.624 70.4994 44.104 71.3634 45.064C72.2274 46.024 72.6594 47.408 72.6594 49.216C72.6594 51.168 72.1954 52.664 71.2674 53.704C70.3394 54.728 69.0034 55.24 67.2594 55.24C65.6274 55.24 64.3794 54.76 63.5154 53.8C62.6514 52.84 62.2194 51.456 62.2194 49.648C62.2194 47.696 62.6834 46.208 63.6114 45.184C64.5394 44.144 65.8754 43.624 67.6194 43.624ZM67.4034 45.784C66.6354 45.784 66.0754 46.04 65.7234 46.552C65.3874 47.064 65.2194 47.888 65.2194 49.024C65.2194 50.496 65.3954 51.544 65.7474 52.168C66.0994 52.792 66.6754 53.104 67.4754 53.104C68.2434 53.104 68.7954 52.856 69.1314 52.36C69.4834 51.848 69.6594 51.016 69.6594 49.864C69.6594 48.408 69.4754 47.368 69.1074 46.744C68.7554 46.104 68.1874 45.784 67.4034 45.784ZM83.4868 49.816L77.0068 49.864C77.1508 51.864 78.1668 52.864 80.0548 52.864C81.0468 52.864 82.1508 52.584 83.3668 52.024L83.6308 52.192L83.1508 54.568C81.9348 55.016 80.7908 55.24 79.7188 55.24C77.9588 55.24 76.5748 54.728 75.5668 53.704C74.5748 52.68 74.0788 51.264 74.0788 49.456C74.0788 47.664 74.5668 46.248 75.5428 45.208C76.5188 44.152 77.8388 43.624 79.5028 43.624C80.9268 43.624 82.0228 44.016 82.7908 44.8C83.5748 45.568 83.9668 46.648 83.9668 48.04C83.9668 48.408 83.9268 48.872 83.8468 49.432L83.4868 49.816ZM81.1828 47.68C81.1828 47.04 81.0388 46.56 80.7508 46.24C80.4628 45.904 80.0388 45.736 79.4788 45.736C78.8548 45.736 78.3348 45.944 77.9188 46.36C77.5028 46.76 77.2228 47.344 77.0788 48.112L81.1348 48.016L81.1828 47.68ZM93.0311 48.04C93.0471 47.48 92.9191 47.048 92.6471 46.744C92.3911 46.424 92.0151 46.264 91.5191 46.264C90.7991 46.264 90.0311 46.608 89.2151 47.296V50.08L89.3591 55H86.1671L86.3351 50.392L86.2151 44.056L89.2391 43.792V45.424H89.4071C90.2871 44.624 91.2471 44.048 92.2871 43.696C93.5031 43.696 94.4311 43.976 95.0711 44.536C95.7111 45.08 96.0151 45.872 95.9831 46.912L95.9111 50.104L96.0551 55H92.8391L93.0311 48.04ZM107.51 49.816L101.03 49.864C101.174 51.864 102.19 52.864 104.078 52.864C105.07 52.864 106.174 52.584 107.39 52.024L107.654 52.192L107.174 54.568C105.958 55.016 104.814 55.24 103.742 55.24C101.982 55.24 100.598 54.728 99.5903 53.704C98.5983 52.68 98.1023 51.264 98.1023 49.456C98.1023 47.664 98.5903 46.248 99.5663 45.208C100.542 44.152 101.862 43.624 103.526 43.624C104.95 43.624 106.046 44.016 106.814 44.8C107.598 45.568 107.99 46.648 107.99 48.04C107.99 48.408 107.95 48.872 107.87 49.432L107.51 49.816ZM105.206 47.68C105.206 47.04 105.062 46.56 104.774 46.24C104.486 45.904 104.062 45.736 103.502 45.736C102.878 45.736 102.358 45.944 101.942 46.36C101.526 46.76 101.246 47.344 101.102 48.112L105.158 48.016L105.206 47.68ZM121.095 39.352C122.775 39.352 124.287 39.664 125.631 40.288L124.935 43.216L124.623 43.264C123.839 42.816 123.135 42.496 122.511 42.304C121.903 42.096 121.247 41.992 120.543 41.992C119.119 41.992 118.079 42.416 117.423 43.264C116.767 44.112 116.439 45.504 116.439 47.44C116.439 48.72 116.575 49.736 116.847 50.488C117.135 51.24 117.575 51.792 118.167 52.144C118.759 52.48 119.543 52.648 120.519 52.648C120.855 52.648 121.167 52.624 121.455 52.576C121.759 52.528 122.127 52.44 122.559 52.312L122.607 50.992L122.559 48.544L125.559 48.328L125.487 50.488L125.559 54.256C123.639 54.896 121.871 55.216 120.255 55.216C117.855 55.216 116.047 54.56 114.831 53.248C113.631 51.936 113.031 50.056 113.031 47.608C113.031 44.936 113.727 42.896 115.119 41.488C116.527 40.064 118.519 39.352 121.095 39.352ZM132.424 43.624C134.056 43.624 135.304 44.104 136.168 45.064C137.032 46.024 137.464 47.408 137.464 49.216C137.464 51.168 137 52.664 136.072 53.704C135.144 54.728 133.808 55.24 132.064 55.24C130.432 55.24 129.184 54.76 128.32 53.8C127.456 52.84 127.024 51.456 127.024 49.648C127.024 47.696 127.488 46.208 128.416 45.184C129.344 44.144 130.68 43.624 132.424 43.624ZM132.208 45.784C131.44 45.784 130.88 46.04 130.528 46.552C130.192 47.064 130.024 47.888 130.024 49.024C130.024 50.496 130.2 51.544 130.552 52.168C130.904 52.792 131.48 53.104 132.28 53.104C133.048 53.104 133.6 52.856 133.936 52.36C134.288 51.848 134.464 51.016 134.464 49.864C134.464 48.408 134.28 47.368 133.912 46.744C133.56 46.104 132.992 45.784 132.208 45.784ZM150.307 52.912L150.02 54.592C149.428 54.976 148.82 55.176 148.196 55.192C147.732 55.112 147.348 54.928 147.044 54.64C146.74 54.352 146.508 53.936 146.348 53.392H146.132C145.22 54.288 144.276 54.872 143.3 55.144C142.084 55.144 141.156 54.872 140.516 54.328C139.892 53.768 139.588 52.968 139.604 51.928L139.652 49.096L139.532 44.056L142.628 43.792L142.556 50.872C142.54 51.432 142.652 51.856 142.892 52.144C143.132 52.432 143.492 52.576 143.972 52.576C144.676 52.576 145.372 52.264 146.06 51.64V44.056L149.108 43.792L148.892 52.096C148.892 52.352 148.932 52.536 149.012 52.648C149.108 52.76 149.252 52.816 149.444 52.816C149.62 52.816 149.836 52.784 150.092 52.72L150.307 52.912ZM161.503 50.08L161.575 52.096C161.575 52.368 161.607 52.56 161.671 52.672C161.751 52.768 161.887 52.816 162.079 52.816C162.255 52.816 162.471 52.784 162.727 52.72L162.943 52.912L162.679 54.592C162.135 54.928 161.543 55.128 160.903 55.192C160.407 55.144 159.991 54.976 159.655 54.688C159.319 54.4 159.087 54.008 158.959 53.512H158.767C157.983 54.232 157.183 54.784 156.367 55.168C154.799 55.168 153.583 54.672 152.719 53.68C151.855 52.672 151.423 51.28 151.423 49.504C151.423 47.616 151.919 46.168 152.911 45.16C153.903 44.152 155.279 43.648 157.039 43.648C157.503 43.648 158.015 43.696 158.575 43.792L158.527 38.392L161.695 38.152L161.503 50.08ZM156.823 45.808C155.223 45.808 154.423 46.824 154.423 48.856C154.423 50.12 154.615 51.072 154.999 51.712C155.383 52.352 155.943 52.672 156.679 52.672C157.383 52.672 158.031 52.344 158.623 51.688L158.671 50.368L158.599 46.24C157.975 45.952 157.383 45.808 156.823 45.808Z" fill="white"/>
<g clip-path="url(#clip0_45_1218)">
<path d="M296.663 92.5105C295.548 79.5118 298.737 66.7308 302.18 56.1327C303.326 52.6121 304.529 49.107 305.265 45.042C306.001 40.977 306.224 36.1809 305.379 32.2247C304.861 29.7878 303.948 27.6827 303.824 24.9761C303.725 22.8762 304.13 20.8437 304.524 18.9408C306.121 11.2151 308.272 2.50437 311.938 1.30664C310.077 7.06716 308.112 13.7662 308.682 20.8385C308.962 24.3332 309.849 27.4182 310.279 30.8299C311.015 36.6164 310.393 42.9213 309.263 48.3604C308.132 53.7994 306.525 58.6111 305.135 63.7183C302.667 72.8076 300.889 82.8976 299.909 93.3868C298.794 93.309 297.679 93.2364 296.565 93.1587" fill="#AE9852"/>
<path d="M297.959 92.5105C297.389 85.7286 297.959 78.9103 299.245 72.2372C300.453 66.0049 302.315 59.9696 304.254 53.9394C306.193 47.9093 307.676 41.4903 307.09 35.0505C306.945 33.4795 306.675 31.9395 306.266 30.4152C305.856 28.8908 305.4 27.5167 305.203 26.0183C304.798 22.9021 305.649 19.7548 306.318 16.7372C307.018 13.5588 307.785 10.3596 308.972 7.32123C309.413 6.19609 309.937 5.08131 310.621 4.08061C310.813 3.80062 310.823 3.78507 311.005 3.57767C311.171 3.38582 311.347 3.20953 311.534 3.03324C311.591 2.98139 311.653 2.92436 311.715 2.87769C311.508 3.04361 311.876 2.77399 311.917 2.74807C311.98 2.71178 312.047 2.67548 312.109 2.63919C312.171 2.60808 312.239 2.57178 312.301 2.54586C312.156 2.60808 312.151 2.61326 312.286 2.56141L310.689 0.964435C308.848 6.6731 307.235 12.5529 307.287 18.6038C307.318 21.7718 307.93 24.8568 308.511 27.9575C309.092 31.0581 309.351 33.9306 309.299 36.9742C309.19 43.0769 307.951 49.0344 306.312 54.8935C304.674 60.7525 302.994 66.3886 301.765 72.2632C300.308 79.2318 299.287 86.2937 298.623 93.3816L299.919 92.0854C298.805 92.0076 297.69 91.935 296.575 91.8572C295.875 91.8106 295.279 92.4846 295.279 93.1535C295.279 93.8949 295.875 94.4031 296.575 94.4497C297.69 94.5275 298.805 94.6001 299.919 94.6779C300.666 94.7297 301.153 94.0401 301.216 93.3816C301.807 87.113 302.683 80.8754 303.907 74.7001C305.068 68.8566 306.644 63.1428 308.293 57.4186C309.942 51.6943 311.394 45.602 311.788 39.4837C311.985 36.3986 311.923 33.3032 311.503 30.2389C311.083 27.1745 310.315 24.3332 310.025 21.3311C309.366 14.5802 311.134 8.01602 313.188 1.64885C313.478 0.741481 312.514 -0.264407 311.591 0.0518775C309.548 0.757036 308.278 2.66511 307.37 4.52652C306.136 7.06716 305.332 9.81002 304.638 12.5373C303.85 15.6431 303.082 18.8215 302.673 22.0051C302.444 23.768 302.476 25.4998 302.792 27.2523C303.067 28.7663 303.554 30.2285 303.927 31.7218C305.483 37.9438 304.347 44.622 302.558 50.6625C301.667 53.675 300.624 56.6356 299.722 59.6429C298.82 62.6502 297.944 65.9167 297.249 69.1003C295.574 76.7689 294.708 84.6657 295.367 92.5054C295.424 93.2053 295.922 93.8016 296.663 93.8016C297.322 93.8016 298.016 93.2053 297.959 92.5054V92.5105Z" fill="#AE9852"/>
<path d="M289.86 68.8774C291.748 65.3983 295.673 63.9102 298.079 60.7162C299.282 59.1245 299.982 57.2734 300.64 55.4898C302.024 51.7566 303.409 48.0286 304.793 44.2954C305.426 42.5895 306.079 40.8474 307.1 39.24C308.475 37.0831 310.388 35.372 312.239 33.7388C310.17 34.361 307.972 35.1283 306.032 36.8912C303.02 39.6341 301.578 43.865 300.469 47.6242C299.359 51.3781 298.027 55.5727 295.082 58.4452C294.102 59.3993 293.023 60.12 291.997 60.9755C290.161 62.5051 288.492 64.4702 287.216 66.6116C287.05 66.8864 286.884 67.2027 286.91 67.4567C286.931 67.6641 287.081 67.773 287.226 67.8612C288.02 68.3641 288.813 68.867 289.606 69.3752" fill="#006838"/>
<path d="M290.98 69.5307C292.131 67.4671 294.086 66.1034 295.891 64.6568C297.949 63.008 299.629 61.1518 300.728 58.7304C301.993 55.9408 302.947 52.9906 304.01 50.1233C305.073 47.256 305.939 44.4457 307.204 41.7547C308.568 38.8615 310.792 36.746 313.157 34.6617C314.137 33.7958 313.1 32.1314 311.897 32.4943C308.718 33.4587 305.799 34.8587 303.694 37.5186C301.729 40.0022 300.557 42.9732 299.619 45.9753C298.68 48.9774 297.985 51.741 296.528 54.3698C295.802 55.6764 294.931 56.8586 293.822 57.8593C292.515 59.0415 291.037 60.0007 289.783 61.2451C288.424 62.5932 287.211 64.1279 286.221 65.7612C285.671 66.6686 285.256 67.8196 286.174 68.6752C286.957 69.4062 288.056 69.9196 288.958 70.4899C290.369 71.3869 291.67 69.147 290.265 68.25C289.835 67.9752 289.399 67.7004 288.969 67.4256C288.632 67.213 288.144 66.9952 287.89 66.7101L288.222 67.2804C288.3 67.5189 288.123 67.4982 288.341 67.2597C288.429 67.1612 288.512 66.9797 288.58 66.8708C288.782 66.5493 288.989 66.233 289.207 65.9219C289.622 65.3257 290.068 64.7605 290.545 64.2161C291.514 63.1065 292.598 62.1213 293.76 61.2192C294.921 60.317 296.145 59.3474 297.104 58.1445C297.985 57.0401 298.722 55.8527 299.333 54.5772C301.625 49.7915 302.149 44.2435 305.203 39.8104C307.002 37.1971 309.631 35.8853 312.591 34.9883L311.331 32.821C309.19 34.7135 307.059 36.6838 305.623 39.1933C304.14 41.7858 303.258 44.7361 302.227 47.5204C301.133 50.4759 300.08 53.452 298.929 56.3816C298.426 57.6674 297.819 58.9637 296.964 60.0577C296.259 60.9599 295.388 61.7325 294.506 62.4532C292.386 64.1953 290.109 65.7612 288.74 68.2189C287.926 69.6759 290.166 70.9877 290.98 69.5255V69.5307Z" fill="#006838"/>
<path d="M291.836 87.2995C292.878 81.8293 287.724 76.971 287.46 71.4075C287.33 68.6284 288.435 65.9633 289.523 63.4019C291.794 58.0458 294.065 52.6949 296.342 47.3388C297.379 44.8915 298.431 42.3872 298.644 39.7376C298.924 36.1756 297.659 32.6964 296.419 29.3469C299.349 31.7216 302.33 34.3608 303.564 37.9281C305.483 43.476 302.678 49.4387 299.878 54.5978C297.078 59.7569 294.122 65.59 295.756 71.226C296.3 73.0978 297.322 74.7881 298.079 76.5821C299.437 79.7968 299.93 83.3745 299.489 86.838C299.432 87.2839 299.333 87.7817 298.965 88.0461C298.659 88.2691 298.25 88.2639 297.871 88.2535C295.802 88.1861 293.728 88.1187 291.66 88.0565" fill="#D5AF34"/>
<path d="M293.085 87.6469C293.723 84.0641 292.24 80.8494 290.763 77.6762C290.063 76.1726 289.373 74.6534 288.995 73.0305C288.569 71.2261 288.761 69.4373 289.285 67.6744C289.892 65.6211 290.809 63.6664 291.644 61.7013C292.531 59.6169 293.417 57.5274 294.299 55.443C295.18 53.3586 296.072 51.2691 296.953 49.1847C297.788 47.2144 298.69 45.2493 299.292 43.1857C299.981 40.8265 300.111 38.4518 299.733 36.0304C299.354 33.609 298.504 31.2965 297.659 29.0151L295.491 30.2751C298.68 32.8624 302.004 35.7763 302.755 40.028C303.507 44.2797 301.423 48.8736 299.453 52.6379C297.306 56.7392 294.838 60.8665 294.169 65.5278C293.837 67.8662 293.962 70.2461 294.786 72.4757C295.611 74.7052 296.808 76.5977 297.488 78.8065C298.245 81.2694 298.483 83.8308 298.229 86.3974C298.208 86.6099 298.162 86.8122 298.13 87.0247C298.141 86.9625 298.405 87.0403 298.146 86.9781C297.866 86.9107 297.503 86.9625 297.213 86.9521C296.824 86.9418 296.435 86.9262 296.046 86.9159C294.579 86.8692 293.111 86.8225 291.644 86.7759C289.974 86.724 289.98 89.3165 291.644 89.3684C293.023 89.415 294.402 89.4565 295.787 89.5032C296.974 89.5395 298.54 89.8557 299.603 89.1869C300.666 88.518 300.759 87.1803 300.853 86.05C300.951 84.8522 300.946 83.6441 300.827 82.4464C300.578 79.8746 299.883 77.4377 298.794 75.0941C297.793 72.9371 296.684 70.8839 296.575 68.4521C296.357 63.6042 298.913 59.0932 301.138 54.966C303.362 50.8387 305.758 45.9545 305.446 41.0028C305.281 38.3896 304.352 35.9371 302.792 33.8423C301.231 31.7476 299.318 30.0729 297.316 28.4448C296.865 28.0766 296.279 27.9315 295.745 28.2426C295.279 28.5122 294.952 29.1759 295.149 29.7047C296.58 33.5675 298.011 37.5652 296.995 41.708C296.513 43.6783 295.694 45.5449 294.905 47.4063C294.034 49.4543 293.168 51.5024 292.297 53.5453C291.426 55.5882 290.56 57.6414 289.689 59.6843C288.818 61.7272 287.921 63.6819 287.18 65.7352C286.485 67.6588 285.992 69.7328 286.169 71.7913C286.314 73.5127 286.827 75.1356 287.491 76.717C288.813 79.8695 291.203 83.3797 290.566 86.9625C290.441 87.6521 290.752 88.3573 291.473 88.5595C292.1 88.7306 292.945 88.3469 293.07 87.6521L293.085 87.6469Z" fill="#D5AF34"/>
<path d="M295.621 76.6134C294.76 72.7506 291.4 70.2411 289.959 66.5079C289.238 64.6465 289.078 62.671 288.932 60.7785C288.626 56.8119 288.321 52.8402 288.015 48.8737C287.875 47.059 287.729 45.2079 287.185 43.3776C286.454 40.9252 285.085 38.7578 283.753 36.6735C285.572 37.8401 287.475 39.1778 288.855 41.4074C290.996 44.8761 291.224 49.3404 291.255 53.255C291.292 57.1697 291.416 61.5666 293.464 65.139C294.143 66.3264 294.983 67.3167 295.735 68.4159C297.083 70.3914 298.146 72.735 298.784 75.146C298.867 75.4571 298.939 75.8097 298.846 76.0431C298.768 76.2401 298.592 76.2971 298.426 76.349C297.524 76.6134 296.627 76.883 295.725 77.1475" fill="#006838"/>
<path d="M296.871 76.2712C296.305 73.8601 294.859 71.8898 293.443 69.9144C292.743 68.9344 292.054 67.9389 291.514 66.8552C290.929 65.6782 290.617 64.3768 290.441 63.0805C290.032 60.1044 289.938 57.0608 289.705 54.069C289.472 51.0773 289.383 47.9508 288.865 44.9487C288.3 41.651 286.641 38.8044 284.862 36.0253L283.089 37.7986C285.412 39.297 287.439 41.0288 288.543 43.6317C289.648 46.2345 289.871 49.2055 289.933 52.0262C289.995 54.8468 289.974 57.7867 290.509 60.6332C290.794 62.1576 291.26 63.6353 291.934 65.0301C292.608 66.4249 293.594 67.6122 294.475 68.8774C295.465 70.3032 296.29 71.8535 296.891 73.4816C297.042 73.8861 297.176 74.2957 297.301 74.7053C297.358 74.8919 297.431 75.6075 297.586 75.7164L298.079 75.0942C297.954 75.1305 297.835 75.1667 297.71 75.203C297.425 75.286 297.135 75.3741 296.85 75.4571C296.357 75.6023 295.865 75.7475 295.377 75.8926C293.78 76.3645 294.46 78.8688 296.067 78.3918C296.964 78.1274 297.887 77.8992 298.768 77.5933C299.65 77.2874 300.23 76.6185 300.168 75.6178C300.116 74.809 299.81 73.9898 299.546 73.2276C299.24 72.3461 298.882 71.4802 298.488 70.6403C297.742 69.0588 296.777 67.6485 295.751 66.2434C294.791 64.9316 294.003 63.5835 293.516 62.028C291.649 56.0134 293.402 49.5063 291.266 43.5228C290.633 41.7495 289.705 40.1162 288.424 38.7319C287.258 37.4719 285.837 36.4712 284.395 35.5483C283.312 34.8483 281.933 36.2379 282.622 37.3215C284.121 39.6652 285.593 42.0399 286.2 44.7879C286.838 47.676 286.853 50.7351 287.081 53.675C287.309 56.6149 287.46 59.7207 287.807 62.7228C287.973 64.159 288.206 65.5901 288.74 66.9382C289.207 68.1152 289.819 69.204 290.529 70.2514C291.976 72.3824 293.765 74.3786 294.366 76.9504C294.745 78.5733 297.249 77.8889 296.865 76.2608L296.871 76.2712Z" fill="#006838"/>
<path d="M298.919 89.7418C294.299 83.7895 294.294 75.9913 290.488 69.3908C288.59 66.0983 285.935 63.4384 283.369 60.9029C278.008 55.5935 272.646 50.2841 267.285 44.9747C264.833 42.5481 262.333 40.0645 260.296 37.052C257.558 33.0129 255.914 28.4294 254.354 24.0066C254.084 27.9887 253.965 32.2974 255.686 36.9691C258.362 44.2332 264.527 50.0352 270.1 54.8987C275.674 59.7623 281.844 65.3517 284.774 72.6055C285.749 75.0113 286.272 77.4068 287.045 79.8178C288.435 84.1317 290.664 88.5078 293.433 92.3654C293.791 92.8632 294.211 93.4024 294.646 93.558C295.009 93.6876 295.284 93.5165 295.528 93.3454C296.876 92.4121 298.219 91.4788 299.567 90.5507" fill="#D5AF34"/>
<path d="M300.039 89.0885C297.119 85.2827 296.046 80.6318 294.651 76.1364C293.926 73.7979 293.091 71.4699 291.924 69.3078C290.68 67.0056 289.031 64.9368 287.263 63.0236C285.495 61.1103 283.467 59.1711 281.549 57.2734C279.48 55.2201 277.406 53.1721 275.337 51.1188C273.269 49.0656 271.195 47.0175 269.126 44.9642C267.259 43.1132 265.361 41.2777 263.645 39.2815C259.731 34.7291 257.589 29.2537 255.619 23.6643C255.131 22.2799 253.172 22.5236 253.073 24.0065C252.876 26.962 252.834 29.9019 253.296 32.8418C253.757 35.7816 254.877 38.82 256.402 41.5059C259.196 46.4316 263.267 50.5277 267.456 54.2817C271.604 57.9993 275.908 61.5614 279.366 65.9634C281.041 68.0893 282.524 70.4485 283.545 72.958C284.753 75.9342 285.36 79.1126 286.501 82.1147C287.771 85.4642 289.409 88.6737 291.39 91.6602C292.266 92.9772 293.485 95.3053 295.414 94.849C296.243 94.652 297.011 93.9209 297.695 93.4439C298.545 92.8528 299.396 92.2669 300.246 91.6758C300.822 91.2765 301.086 90.5403 300.713 89.9025C300.381 89.3322 299.515 89.0366 298.939 89.4359C298.265 89.9025 297.591 90.3692 296.922 90.8358C296.606 91.0588 296.285 91.2765 295.968 91.4995C295.714 91.6758 294.978 92.0232 294.833 92.2876L294.755 92.3395C295.17 92.438 295.289 92.438 295.113 92.3395C295.113 92.3135 294.797 92.0024 294.807 92.018C294.574 91.7432 294.377 91.4373 294.169 91.1417C293.713 90.4884 293.277 89.8247 292.857 89.1507C291.297 86.6412 289.954 83.9865 288.922 81.2125C287.828 78.2778 287.227 75.1823 286.05 72.2736C285.028 69.7537 283.675 67.41 282.047 65.2324C278.806 60.8925 274.793 57.2838 270.738 53.7321C266.684 50.1803 262.759 46.5405 259.798 42.0814C258.061 39.463 256.728 36.6268 256.06 33.5469C255.391 30.467 255.458 27.1953 255.671 24.0169L253.125 24.3591C254.898 29.373 256.749 34.4595 259.943 38.7682C263.137 43.0769 267.42 46.919 271.319 50.7818C275.431 54.852 279.568 58.8963 283.649 62.9976C285.464 64.8227 287.232 66.7101 288.652 68.867C289.99 70.8995 290.944 73.1187 291.712 75.4209C293.423 80.5384 294.454 86.0242 297.809 90.4003C298.234 90.9551 298.924 91.2506 299.582 90.8669C300.127 90.5455 300.474 89.6536 300.049 89.0937L300.039 89.0885Z" fill="#D5AF34"/>
<path d="M292.017 87.7765C296.933 84.7848 297.275 77.614 301.397 73.5904C303.455 71.5838 306.25 70.5676 308.946 69.6135C314.588 67.6173 320.224 65.6211 325.865 63.6249C328.442 62.7123 331.071 61.7738 333.259 60.1043C336.193 57.8644 338.05 54.5304 339.813 51.3002C339.916 55.1111 339.849 59.1399 337.91 62.5101C334.897 67.7521 328.426 69.7691 322.593 71.2416C316.755 72.7142 310.294 74.5289 307.023 79.6206C305.934 81.3109 305.306 83.2345 304.42 85.0337C302.833 88.2536 300.396 91.0794 297.43 93.1378C297.047 93.4023 296.601 93.6719 296.155 93.5785C295.782 93.5008 295.512 93.2 295.274 92.9097C293.957 91.3283 292.634 89.7417 291.317 88.1602" fill="#D5AF34"/>
<path d="M292.676 88.8965C295.699 87.0196 297.192 83.8204 298.597 80.6939C299.297 79.1384 300.002 77.5725 300.956 76.157C301.988 74.6223 303.383 73.4816 305.016 72.6209C306.909 71.6253 308.977 70.9824 310.989 70.2721C313.364 69.4321 315.744 68.5921 318.119 67.747C320.493 66.9018 322.873 66.067 325.248 65.2219C327.384 64.4649 329.552 63.739 331.568 62.6968C336.038 60.3843 338.594 56.2363 340.938 51.9587L338.522 51.3054C338.584 53.7682 338.61 56.2778 338.024 58.6836C337.49 60.882 336.427 62.8264 334.794 64.3871C331.776 67.2751 327.56 68.5921 323.615 69.6395C319.373 70.7698 315.013 71.7342 311.197 74.0001C309.304 75.1252 307.635 76.5666 306.333 78.3451C304.824 80.4087 304.13 82.9027 302.916 85.127C301.703 87.3514 299.93 89.5084 297.876 91.1935C297.441 91.5512 296.912 92.0646 296.388 92.2719C296.295 92.3082 296.451 92.3031 296.476 92.3134C296.399 92.2771 296.321 92.132 296.259 92.0645C295.984 91.7483 295.725 91.4216 295.455 91.1001C294.382 89.8143 293.314 88.5284 292.24 87.2425C291.794 86.7033 290.872 86.781 290.405 87.2425C289.871 87.7766 289.954 88.5336 290.405 89.078C291.395 90.2654 292.38 91.4527 293.371 92.6401C294.283 93.7393 295.222 95.2118 296.881 94.8281C298.115 94.5482 299.266 93.4282 300.189 92.6193C301.112 91.8105 302.035 90.8616 302.833 89.8661C304.544 87.7403 305.669 85.4226 306.764 82.939C307.743 80.7198 308.983 78.7754 310.932 77.2822C314.468 74.5756 318.979 73.4919 323.21 72.4186C327.441 71.3453 332.149 69.9091 335.737 66.9951C337.847 65.2841 339.393 63.0079 340.222 60.4258C341.166 57.4963 341.187 54.3438 341.109 51.3002C341.078 50.0558 339.33 49.4854 338.693 50.6469C336.753 54.1934 334.716 57.8592 331.128 59.9695C329.292 61.0532 327.28 61.7479 325.279 62.4583C322.941 63.2827 320.607 64.1123 318.269 64.9367C315.894 65.7767 313.514 66.6166 311.14 67.4618C309.003 68.2188 306.836 68.9188 304.767 69.8573C302.921 70.692 301.169 71.812 299.842 73.3571C298.716 74.6637 297.861 76.157 297.119 77.7125C295.621 80.8442 294.47 84.7226 291.364 86.6566C289.949 87.5381 291.25 89.778 292.671 88.8965H292.676Z" fill="#D5AF34"/>
<path d="M296.539 93.8534C294.029 81.2176 301.205 68.7892 308.941 58.4918C311.513 55.0645 314.214 51.6632 315.874 47.7122C317.528 43.7612 318.025 39.0947 316.128 35.2527C314.956 32.8831 312.913 30.8351 312.633 28.2063C312.415 26.1634 313.323 24.1879 314.209 22.3369C317.797 14.829 322.635 6.35675 330.879 5.19531C326.695 10.7951 322.282 17.3074 323.563 24.1827C324.195 27.5841 326.181 30.5758 327.156 33.8942C328.81 39.5199 327.415 45.6486 324.875 50.9373C322.334 56.2259 318.72 60.9028 315.599 65.8648C310.046 74.7 306.053 84.51 303.85 94.7089C301.345 94.6363 298.841 94.5637 296.337 94.4859" fill="#42B649"/>
<path d="M297.788 93.5112C296.461 86.6618 298.177 79.6776 301.112 73.4712C302.647 70.2254 304.493 67.13 306.494 64.1486C308.495 61.1724 310.715 58.3674 312.814 55.4586C316.822 49.9055 320.467 42.6206 317.735 35.6986C317.128 34.1587 316.2 32.8261 315.329 31.4314C314.458 30.0366 313.758 28.673 313.924 27.0345C314.09 25.396 314.961 23.7524 315.692 22.2488C316.335 20.9266 316.999 19.62 317.709 18.3393C320.67 12.9987 324.761 7.40414 331.226 6.44492L329.764 4.54203C326.098 9.45221 322.204 15.0157 322.049 21.3829C321.971 24.6701 323.179 27.6048 324.486 30.5499C325.792 33.495 326.648 36.2949 326.575 39.4836C326.435 45.8975 323.319 51.715 319.923 56.9778C318.139 59.7362 316.242 62.422 314.489 65.2064C312.763 67.9544 311.186 70.7958 309.766 73.7149C306.572 80.2843 304.161 87.2218 302.61 94.3563L303.86 93.4023C301.356 93.3297 298.851 93.2571 296.347 93.1794C294.677 93.1327 294.677 95.7252 296.347 95.7718C298.851 95.8444 301.356 95.917 303.86 95.9948C304.399 96.0104 304.99 95.5852 305.11 95.0408C306.473 88.7669 308.485 82.6331 311.16 76.8C312.498 73.886 313.991 71.0446 315.635 68.2862C317.279 65.5278 319.182 62.7746 320.996 60.0421C324.553 54.6964 327.944 48.9929 328.888 42.5324C329.36 39.3074 329.24 35.9993 328.203 32.8883C327.229 29.964 325.575 27.2886 324.901 24.2605C323.387 17.4371 328.162 10.9714 331.994 5.83309C332.294 5.42866 332.18 4.75461 331.89 4.39166C331.537 3.95094 331.071 3.84724 330.526 3.92501C324.429 4.8272 320.027 9.58702 316.9 14.5646C315.262 17.1675 313.836 19.9362 312.581 22.7465C311.788 24.525 311.119 26.4123 311.357 28.3878C311.565 30.1092 312.384 31.6284 313.307 33.0698C314.23 34.5112 315.179 35.9164 315.64 37.5963C316.102 39.2762 316.148 40.9458 315.936 42.6206C315.49 46.136 313.825 49.3299 311.886 52.2439C309.947 55.1579 307.521 58.1237 305.421 61.1206C303.321 64.1175 301.35 67.2389 299.676 70.5054C295.937 77.8111 293.692 85.9722 295.284 94.1801C295.419 94.8697 296.243 95.2585 296.881 95.0874C297.602 94.8904 297.918 94.1801 297.788 93.4904V93.5112Z" fill="#39B54A"/>
<path d="M298.379 93.8535C300.889 81.2177 293.713 68.7893 285.977 58.4919C283.405 55.0646 280.704 51.6633 279.045 47.7123C277.391 43.7614 276.893 39.0949 278.79 35.2528C279.962 32.8833 282.005 30.8352 282.285 28.2064C282.503 26.1635 281.596 24.188 280.709 22.337C277.121 14.8291 272.283 6.35687 264.039 5.19543C268.223 10.7952 272.636 17.3076 271.355 24.1829C270.723 27.5842 268.737 30.5759 267.762 33.8943C266.108 39.52 267.503 45.6487 270.043 50.9374C272.579 56.2209 276.198 60.9029 279.319 65.8649C284.872 74.7002 288.865 84.5102 291.069 94.709C293.573 94.6364 296.077 94.5638 298.582 94.4861" fill="#42B649"/>
<path d="M299.629 94.2009C301.039 86.9211 299.437 79.6518 296.425 72.9839C294.916 69.6448 293.065 66.4664 291.043 63.4124C289.02 60.3585 286.77 57.4808 284.613 54.5254C280.699 49.1589 276.556 41.7496 280.294 35.1906C281.103 33.7699 282.13 32.4684 282.804 30.97C283.597 29.2174 283.799 27.4183 283.348 25.5413C282.928 23.7836 282.057 22.1399 281.264 20.5274C280.6 19.1793 279.91 17.8416 279.169 16.535C275.939 10.8315 271.277 4.96727 264.381 3.94583C263.853 3.86806 263.36 3.9562 263.018 4.41248C262.733 4.79098 262.608 5.43392 262.914 5.85391C266.404 10.5359 270.453 15.9957 270.272 22.1348C270.178 25.2043 268.732 27.9316 267.56 30.7004C266.279 33.7336 265.589 36.8653 265.771 40.1681C266.124 46.7271 269.136 52.6691 272.626 58.0978C274.404 60.8614 276.302 63.5472 278.059 66.3264C279.817 69.1055 281.305 71.7758 282.705 74.6172C285.899 81.1088 288.269 87.9893 289.803 95.0564C289.923 95.5956 290.509 96.026 291.053 96.0104C293.557 95.9378 296.062 95.8653 298.566 95.7875C300.23 95.7408 300.236 93.1483 298.566 93.195C296.062 93.2676 293.557 93.3402 291.053 93.4179L292.303 94.372C290.918 87.9893 288.834 81.7725 286.132 75.8305C284.789 72.875 283.286 69.9922 281.632 67.2027C279.978 64.4131 278.101 61.6806 276.281 58.9585C272.786 53.7165 269.343 48.1375 268.503 41.7651C268.089 38.6126 268.436 35.5068 269.587 32.5462C270.749 29.5597 272.335 26.7701 272.745 23.5451C273.657 16.4157 269.188 9.97078 265.149 4.55247L263.687 6.45536C269.416 7.3057 273.315 11.8426 276.162 16.5453C277.717 19.1171 279.216 21.86 280.33 24.6547C280.958 26.2257 281.259 27.8019 280.657 29.4197C280.107 30.9026 279.065 32.1833 278.256 33.5314C276.405 36.6164 275.959 40.1215 276.519 43.6421C277.079 47.1627 278.713 50.4344 280.662 53.3899C282.612 56.3453 284.924 59.1556 286.993 62.0851C289.062 65.0146 291.011 68.053 292.681 71.2366C296.259 78.0393 298.623 85.8064 297.125 93.5216C296.99 94.2061 297.316 94.9216 298.032 95.1186C298.67 95.2949 299.494 94.906 299.629 94.2112V94.2009Z" fill="#39B54A"/>
<path d="M284.198 67.1041C287.33 72.2217 289.513 77.837 290.68 83.722C290.815 84.4116 291.634 84.8056 292.277 84.6294C292.992 84.4323 293.319 83.722 293.184 83.0324C291.976 76.9452 289.679 71.0862 286.444 65.7923C285.573 64.3716 283.333 65.673 284.204 67.0989L284.198 67.1041Z" fill="#35AC46"/>
<path d="M300.396 88.2329C301.35 80.471 306.395 73.912 310.984 67.887C311.409 67.3322 311.072 66.4352 310.517 66.1138C309.849 65.7249 309.169 66.0204 308.744 66.5804C303.803 73.0668 298.82 79.9162 297.799 88.2381C297.716 88.9329 298.457 89.5343 299.095 89.5343C299.867 89.5343 300.303 88.9381 300.391 88.2381L300.396 88.2329Z" fill="#35AC46"/>
<path d="M320.934 16.0372C319.887 18.3341 318.798 20.6207 317.844 22.9591C316.952 25.1524 316.247 27.4649 316.21 29.8552C316.174 32.2454 317.004 34.5165 317.813 36.7719C318.622 39.0274 319.119 41.174 319.244 43.4865C319.384 46.1619 319.052 48.8063 318.269 51.3625C317.782 52.9595 320.281 53.6439 320.768 52.0521C322.158 47.5049 322.235 42.5636 320.934 37.9852C320.317 35.8127 319.275 33.7491 318.907 31.504C318.539 29.2589 319.109 26.9827 319.866 24.8879C320.799 22.311 322.038 19.8378 323.174 17.349C323.464 16.7112 323.355 15.9542 322.707 15.5757C322.152 15.2491 321.224 15.3994 320.934 16.0424V16.0372Z" fill="#35AC46"/>
<path d="M271.957 15.5912C273.009 17.8104 274.134 20.0088 275.083 22.2747C275.96 24.3798 276.659 26.6197 276.519 28.927C276.379 31.2343 275.239 33.3809 274.523 35.5482C273.808 37.7156 273.398 40.1162 273.341 42.4495C273.279 45.099 273.673 47.7693 274.482 50.2943C274.99 51.8758 277.494 51.2017 276.981 49.6047C275.56 45.1716 275.586 40.4221 277.095 36.0097C277.873 33.7387 278.889 31.5817 279.096 29.1603C279.304 26.739 278.666 24.3279 277.795 22.1036C276.748 19.4333 275.431 16.8719 274.202 14.2846C273.901 13.652 272.994 13.4861 272.429 13.818C271.78 14.1965 271.661 14.9587 271.962 15.5912H271.957Z" fill="#35AC46"/>
<path d="M317.88 71.2055C320.514 71.2729 323.184 70.4951 325.357 68.9915C325.912 68.6078 326.223 67.8352 325.823 67.2182C325.466 66.6634 324.646 66.3419 324.05 66.7516C323.568 67.0834 323.065 67.3841 322.541 67.6382C322.401 67.7056 322.261 67.773 322.116 67.8352C322.37 67.7211 321.93 67.9078 321.883 67.9234C321.629 68.0219 321.37 68.1048 321.11 68.1826C320.851 68.2604 320.587 68.3278 320.317 68.39C320.167 68.4263 320.011 68.4522 319.861 68.4833C319.809 68.4937 319.327 68.5663 319.627 68.5248C319.047 68.6026 318.461 68.6233 317.88 68.6078C317.201 68.5922 316.553 69.2144 316.584 69.904C316.615 70.5936 317.154 71.1795 317.88 71.2003V71.2055Z" fill="#CAA731"/>
<path d="M336.479 56.8741C336.09 57.3978 335.701 57.9215 335.302 58.44C335.286 58.4555 335.141 58.6474 335.224 58.5437C335.307 58.44 335.156 58.6318 335.141 58.6474C335.042 58.7718 334.944 58.8962 334.85 59.0207C334.643 59.2851 334.436 59.5496 334.223 59.814C333.404 60.8354 332.569 61.8361 331.708 62.8213C331.262 63.3346 331.169 64.159 331.708 64.6568C332.196 65.1027 333.067 65.2012 333.544 64.6568C335.359 62.5724 337.08 60.4051 338.718 58.1807C339.123 57.6311 338.827 56.7082 338.252 56.4075C337.578 56.0497 336.909 56.2882 336.479 56.8741Z" fill="#CAA731"/>
<path d="M298.711 35.3409C299.499 38.1511 299.873 41.2569 299.359 44.1553C298.846 47.0537 297.389 49.3973 295.828 51.7358C294.9 53.1254 297.145 54.4268 298.068 53.0424C299.79 50.4655 301.407 47.7019 301.9 44.5961C302.424 41.2932 302.107 37.8608 301.21 34.6513C300.759 33.0491 298.26 33.7283 298.711 35.3409Z" fill="#CAA731"/>
<path d="M255.448 34.2261C256.293 37.8142 258.268 41.1325 261.032 43.5799C261.556 44.0413 262.349 44.0984 262.867 43.5799C263.339 43.108 263.396 42.211 262.867 41.7444C261.576 40.6037 260.622 39.463 259.762 38.0267C258.901 36.5905 258.351 35.2268 257.952 33.5365C257.791 32.8573 257.014 32.4529 256.355 32.6292C255.655 32.821 255.287 33.5417 255.448 34.2261Z" fill="#CAA731"/>
<path d="M304.529 52.7727C304.809 54.1468 304.218 55.583 303.689 56.8274C303.015 58.4088 302.32 59.9799 301.636 61.5561C301.356 62.199 301.444 62.9457 302.102 63.3294C302.652 63.6508 303.595 63.5108 303.875 62.8627C304.653 61.0739 305.446 59.2955 306.198 57.4963C306.95 55.6971 307.412 53.9705 307.028 52.0831C306.888 51.3987 306.074 50.9995 305.431 51.1758C304.715 51.3728 304.384 52.0831 304.524 52.7727H304.529Z" fill="#9F8B4A"/>
<path d="M306.318 10.1574C305.752 14.2069 305.395 18.2719 305.286 22.3577C305.239 24.0272 307.832 24.0272 307.878 22.3577C307.982 18.5052 308.288 14.6632 308.817 10.847C308.915 10.1522 308.651 9.45744 307.909 9.25004C307.303 9.08412 306.411 9.45744 306.312 10.1574H306.318Z" fill="#9F8B4A"/>
<path d="M287.47 47.0331C287.833 50.3203 288.238 53.6024 288.689 56.8845C288.782 57.5793 289.674 57.9578 290.286 57.7919C291.032 57.5845 291.286 56.8949 291.193 56.1949C290.778 53.1462 290.405 50.0922 290.068 47.0331C289.99 46.3383 289.529 45.7368 288.772 45.7368C288.129 45.7368 287.398 46.3331 287.475 47.0331H287.47Z" fill="#006134"/>
<path d="M307.256 35.4964L306.354 36.2119C306.229 36.3312 306.136 36.466 306.084 36.6267C306.001 36.7823 305.965 36.9482 305.97 37.1245C305.965 37.3008 306.001 37.4719 306.084 37.6223C306.136 37.783 306.224 37.923 306.354 38.0371L306.618 38.2393C306.821 38.3585 307.038 38.4156 307.272 38.4156L307.614 38.3689C307.832 38.3067 308.023 38.1978 308.184 38.0371L309.086 37.3215C309.211 37.2023 309.304 37.0675 309.356 36.9067C309.439 36.7512 309.475 36.5853 309.47 36.409C309.475 36.2327 309.439 36.0616 309.356 35.9112C309.304 35.7505 309.216 35.6105 309.086 35.4964L308.822 35.2942C308.62 35.175 308.402 35.1179 308.169 35.1179L307.826 35.1646C307.609 35.2268 307.417 35.3357 307.256 35.4964Z" fill="#006134"/>
</g>
<path d="M4.044 69.224C5.164 69.224 6.024 69.536 6.624 70.16C7.224 70.784 7.524 71.68 7.524 72.848C7.524 74.216 7.188 75.264 6.516 75.992C5.844 76.72 4.884 77.084 3.636 77.084C3.26 77.084 2.808 77.076 2.28 77.06C1.76 77.044 1.312 77.024 0.936 77L1.02 74.696L0.936 69.272L4.044 69.224ZM3.924 75.824C5.196 75.824 5.832 74.956 5.832 73.22C5.832 72.276 5.676 71.592 5.364 71.168C5.06 70.736 4.58 70.52 3.924 70.52C3.5 70.52 3.048 70.54 2.568 70.58L2.496 74.552L2.532 75.74C3.092 75.796 3.556 75.824 3.924 75.824ZM12.8684 74.408L9.62841 74.432C9.70041 75.432 10.2084 75.932 11.1524 75.932C11.6484 75.932 12.2004 75.792 12.8084 75.512L12.9404 75.596L12.7004 76.784C12.0924 77.008 11.5204 77.12 10.9844 77.12C10.1044 77.12 9.41241 76.864 8.90841 76.352C8.41241 75.84 8.16441 75.132 8.16441 74.228C8.16441 73.332 8.40841 72.624 8.89641 72.104C9.38441 71.576 10.0444 71.312 10.8764 71.312C11.5884 71.312 12.1364 71.508 12.5204 71.9C12.9124 72.284 13.1084 72.824 13.1084 73.52C13.1084 73.704 13.0884 73.936 13.0484 74.216L12.8684 74.408ZM11.7164 73.34C11.7164 73.02 11.6444 72.78 11.5004 72.62C11.3564 72.452 11.1444 72.368 10.8644 72.368C10.5524 72.368 10.2924 72.472 10.0844 72.68C9.87641 72.88 9.73641 73.172 9.66441 73.556L11.6924 73.508L11.7164 73.34ZM21.389 72.176C21.173 72.232 20.865 72.292 20.465 72.356L20.441 72.404C20.561 72.644 20.621 72.912 20.621 73.208C20.621 73.808 20.401 74.288 19.961 74.648C19.529 75 18.941 75.176 18.197 75.176C17.973 75.176 17.741 75.156 17.501 75.116C17.429 75.188 17.381 75.244 17.357 75.284C17.333 75.324 17.321 75.372 17.321 75.428C17.321 75.572 17.417 75.672 17.609 75.728C17.801 75.784 18.105 75.84 18.521 75.896C18.993 75.952 19.385 76.02 19.697 76.1C20.017 76.18 20.289 76.32 20.513 76.52C20.745 76.72 20.861 77.004 20.861 77.372C20.861 77.748 20.741 78.084 20.501 78.38C20.269 78.684 19.945 78.92 19.529 79.088C19.113 79.256 18.641 79.34 18.113 79.34C17.385 79.34 16.825 79.192 16.433 78.896C16.041 78.6 15.845 78.208 15.845 77.72C16.093 77.376 16.425 77.076 16.841 76.82V76.76C16.569 76.664 16.357 76.532 16.205 76.364C16.053 76.188 15.977 75.956 15.977 75.668C16.193 75.404 16.465 75.16 16.793 74.936V74.876C16.505 74.716 16.285 74.508 16.133 74.252C15.989 73.988 15.917 73.68 15.917 73.328C15.917 72.704 16.133 72.216 16.565 71.864C16.997 71.512 17.585 71.336 18.329 71.336C18.761 71.336 19.153 71.408 19.505 71.552C20.081 71.448 20.669 71.288 21.269 71.072L21.389 71.18V72.176ZM18.245 74.216C18.573 74.216 18.821 74.132 18.989 73.964C19.157 73.796 19.241 73.552 19.241 73.232C19.241 72.624 18.929 72.32 18.305 72.32C17.633 72.32 17.297 72.628 17.297 73.244C17.297 73.564 17.377 73.808 17.537 73.976C17.697 74.136 17.933 74.216 18.245 74.216ZM19.517 77.66C19.517 77.444 19.401 77.296 19.169 77.216C18.945 77.136 18.597 77.068 18.125 77.012L17.717 76.952C17.525 77.08 17.381 77.204 17.285 77.324C17.189 77.444 17.141 77.572 17.141 77.708C17.141 77.916 17.237 78.084 17.429 78.212C17.621 78.34 17.901 78.404 18.269 78.404C18.645 78.404 18.945 78.336 19.169 78.2C19.401 78.072 19.517 77.892 19.517 77.66ZM24.2941 71.312C25.1101 71.312 25.7341 71.552 26.1661 72.032C26.5981 72.512 26.8141 73.204 26.8141 74.108C26.8141 75.084 26.5821 75.832 26.1181 76.352C25.6541 76.864 24.9861 77.12 24.1141 77.12C23.2981 77.12 22.6741 76.88 22.2421 76.4C21.8101 75.92 21.5941 75.228 21.5941 74.324C21.5941 73.348 21.8261 72.604 22.2901 72.092C22.7541 71.572 23.4221 71.312 24.2941 71.312ZM24.1861 72.392C23.8021 72.392 23.5221 72.52 23.3461 72.776C23.1781 73.032 23.0941 73.444 23.0941 74.012C23.0941 74.748 23.1821 75.272 23.3581 75.584C23.5341 75.896 23.8221 76.052 24.2221 76.052C24.6061 76.052 24.8821 75.928 25.0501 75.68C25.2261 75.424 25.3141 75.008 25.3141 74.432C25.3141 73.704 25.2221 73.184 25.0381 72.872C24.8621 72.552 24.5781 72.392 24.1861 72.392ZM33.2358 75.956L33.0918 76.796C32.7958 76.988 32.4918 77.088 32.1798 77.096C31.9478 77.056 31.7558 76.964 31.6038 76.82C31.4518 76.676 31.3358 76.468 31.2558 76.196H31.1478C30.6918 76.644 30.2198 76.936 29.7318 77.072C29.1238 77.072 28.6598 76.936 28.3398 76.664C28.0278 76.384 27.8758 75.984 27.8838 75.464L27.9078 74.048L27.8478 71.528L29.3958 71.396L29.3598 74.936C29.3518 75.216 29.4078 75.428 29.5278 75.572C29.6478 75.716 29.8278 75.788 30.0678 75.788C30.4198 75.788 30.7678 75.632 31.1118 75.32V71.528L32.6358 71.396L32.5278 75.548C32.5278 75.676 32.5478 75.768 32.5878 75.824C32.6358 75.88 32.7078 75.908 32.8038 75.908C32.8918 75.908 32.9998 75.892 33.1278 75.86L33.2358 75.956ZM38.8333 74.54L38.8693 75.548C38.8693 75.684 38.8853 75.78 38.9173 75.836C38.9573 75.884 39.0253 75.908 39.1213 75.908C39.2093 75.908 39.3173 75.892 39.4453 75.86L39.5533 75.956L39.4213 76.796C39.1493 76.964 38.8533 77.064 38.5333 77.096C38.2853 77.072 38.0773 76.988 37.9093 76.844C37.7413 76.7 37.6253 76.504 37.5613 76.256H37.4653C37.0733 76.616 36.6733 76.892 36.2653 77.084C35.4813 77.084 34.8733 76.836 34.4413 76.34C34.0093 75.836 33.7933 75.14 33.7933 74.252C33.7933 73.308 34.0413 72.584 34.5373 72.08C35.0333 71.576 35.7213 71.324 36.6013 71.324C36.8333 71.324 37.0893 71.348 37.3693 71.396L37.3453 68.696L38.9293 68.576L38.8333 74.54ZM36.4933 72.404C35.6933 72.404 35.2933 72.912 35.2933 73.928C35.2933 74.56 35.3893 75.036 35.5813 75.356C35.7733 75.676 36.0533 75.836 36.4213 75.836C36.7733 75.836 37.0973 75.672 37.3933 75.344L37.4173 74.684L37.3813 72.62C37.0693 72.476 36.7733 72.404 36.4933 72.404ZM44.8137 74.408L41.5737 74.432C41.6457 75.432 42.1537 75.932 43.0977 75.932C43.5937 75.932 44.1457 75.792 44.7537 75.512L44.8857 75.596L44.6457 76.784C44.0377 77.008 43.4657 77.12 42.9297 77.12C42.0497 77.12 41.3577 76.864 40.8537 76.352C40.3577 75.84 40.1097 75.132 40.1097 74.228C40.1097 73.332 40.3537 72.624 40.8417 72.104C41.3297 71.576 41.9897 71.312 42.8217 71.312C43.5337 71.312 44.0817 71.508 44.4657 71.9C44.8577 72.284 45.0537 72.824 45.0537 73.52C45.0537 73.704 45.0337 73.936 44.9937 74.216L44.8137 74.408ZM43.6617 73.34C43.6617 73.02 43.5897 72.78 43.4457 72.62C43.3017 72.452 43.0897 72.368 42.8097 72.368C42.4977 72.368 42.2377 72.472 42.0297 72.68C41.8217 72.88 41.6817 73.172 41.6097 73.556L43.6377 73.508L43.6617 73.34ZM49.5859 73.52C49.5939 73.24 49.5299 73.024 49.3939 72.872C49.2659 72.712 49.0779 72.632 48.8299 72.632C48.4699 72.632 48.0859 72.804 47.6779 73.148V74.54L47.7499 77H46.1539L46.2379 74.696L46.1779 71.528L47.6899 71.396V72.212H47.7739C48.2139 71.812 48.6939 71.524 49.2139 71.348C49.8219 71.348 50.2859 71.488 50.6059 71.768C50.9259 72.04 51.0779 72.436 51.0619 72.956L51.0259 74.552L51.0979 77H49.4899L49.5859 73.52ZM56.6378 71.312C57.4538 71.312 58.0778 71.552 58.5098 72.032C58.9418 72.512 59.1578 73.204 59.1578 74.108C59.1578 75.084 58.9258 75.832 58.4618 76.352C57.9978 76.864 57.3298 77.12 56.4578 77.12C55.6418 77.12 55.0178 76.88 54.5858 76.4C54.1538 75.92 53.9378 75.228 53.9378 74.324C53.9378 73.348 54.1698 72.604 54.6338 72.092C55.0978 71.572 55.7658 71.312 56.6378 71.312ZM56.5298 72.392C56.1458 72.392 55.8658 72.52 55.6898 72.776C55.5218 73.032 55.4378 73.444 55.4378 74.012C55.4378 74.748 55.5258 75.272 55.7018 75.584C55.8778 75.896 56.1658 76.052 56.5658 76.052C56.9498 76.052 57.2258 75.928 57.3938 75.68C57.5698 75.424 57.6578 75.008 57.6578 74.432C57.6578 73.704 57.5658 73.184 57.3818 72.872C57.2058 72.552 56.9218 72.392 56.5298 72.392ZM63.2035 71.348C63.8995 71.348 64.4355 71.584 64.8115 72.056C65.1875 72.528 65.3755 73.196 65.3755 74.06C65.3755 75.036 65.1315 75.792 64.6435 76.328C64.1635 76.856 63.4835 77.12 62.6035 77.12C62.3475 77.12 62.0795 77.096 61.7995 77.048L61.8355 79.22H60.2515L60.3355 74.696L60.2635 71.528L61.7875 71.396L61.7755 72.212H61.8595C62.0835 71.996 62.2995 71.824 62.5075 71.696C62.7155 71.56 62.9475 71.444 63.2035 71.348ZM62.6155 76.076C63.0315 76.076 63.3475 75.928 63.5635 75.632C63.7795 75.336 63.8875 74.9 63.8875 74.324C63.8875 73.764 63.7955 73.344 63.6115 73.064C63.4355 72.776 63.1715 72.632 62.8195 72.632C62.4755 72.632 62.1275 72.804 61.7755 73.148L61.7635 74.54L61.7875 75.896C62.0755 76.016 62.3515 76.076 62.6155 76.076ZM68.0225 74.54L68.1065 77H66.5105L66.5945 74.684L66.5225 68.696L68.1185 68.576L68.0225 74.54ZM71.9308 71.312C72.7468 71.312 73.3708 71.552 73.8028 72.032C74.2348 72.512 74.4508 73.204 74.4508 74.108C74.4508 75.084 74.2188 75.832 73.7548 76.352C73.2908 76.864 72.6228 77.12 71.7508 77.12C70.9348 77.12 70.3108 76.88 69.8788 76.4C69.4468 75.92 69.2308 75.228 69.2308 74.324C69.2308 73.348 69.4628 72.604 69.9268 72.092C70.3908 71.572 71.0588 71.312 71.9308 71.312ZM71.8228 72.392C71.4388 72.392 71.1588 72.52 70.9828 72.776C70.8148 73.032 70.7308 73.444 70.7308 74.012C70.7308 74.748 70.8188 75.272 70.9948 75.584C71.1708 75.896 71.4588 76.052 71.8588 76.052C72.2428 76.052 72.5188 75.928 72.6868 75.68C72.8628 75.424 72.9508 75.008 72.9508 74.432C72.9508 73.704 72.8588 73.184 72.6748 72.872C72.4988 72.552 72.2148 72.392 71.8228 72.392ZM77.4165 71.324C77.9605 71.324 78.4725 71.416 78.9525 71.6L78.7365 72.776L78.5445 72.836C78.3125 72.684 78.0805 72.568 77.8485 72.488C77.6165 72.408 77.4125 72.368 77.2365 72.368C77.0445 72.368 76.8925 72.42 76.7805 72.524C76.6685 72.62 76.6125 72.74 76.6125 72.884C76.6125 73.052 76.6845 73.188 76.8285 73.292C76.9805 73.396 77.2165 73.512 77.5365 73.64C77.8565 73.768 78.1205 73.892 78.3285 74.012C78.5365 74.132 78.7125 74.3 78.8565 74.516C79.0085 74.724 79.0845 74.984 79.0845 75.296C79.0845 75.616 79.0005 75.916 78.8325 76.196C78.6725 76.468 78.4245 76.692 78.0885 76.868C77.7525 77.036 77.3405 77.12 76.8525 77.12C76.2765 77.12 75.6805 77 75.0645 76.76L75.2445 75.512L75.4005 75.416C75.6485 75.624 75.9245 75.792 76.2285 75.92C76.5325 76.04 76.8005 76.1 77.0325 76.1C77.2485 76.1 77.4165 76.048 77.5365 75.944C77.6565 75.832 77.7165 75.7 77.7165 75.548C77.7165 75.38 77.6405 75.244 77.4885 75.14C77.3445 75.036 77.1125 74.92 76.7925 74.792C76.4645 74.648 76.1965 74.52 75.9885 74.408C75.7805 74.288 75.6005 74.12 75.4485 73.904C75.3045 73.688 75.2325 73.42 75.2325 73.1C75.2325 72.58 75.4285 72.156 75.8205 71.828C76.2125 71.492 76.7445 71.324 77.4165 71.324ZM82.022 71.324C82.566 71.324 83.078 71.416 83.558 71.6L83.342 72.776L83.15 72.836C82.918 72.684 82.686 72.568 82.454 72.488C82.222 72.408 82.018 72.368 81.842 72.368C81.65 72.368 81.498 72.42 81.386 72.524C81.274 72.62 81.218 72.74 81.218 72.884C81.218 73.052 81.29 73.188 81.434 73.292C81.586 73.396 81.822 73.512 82.142 73.64C82.462 73.768 82.726 73.892 82.934 74.012C83.142 74.132 83.318 74.3 83.462 74.516C83.614 74.724 83.69 74.984 83.69 75.296C83.69 75.616 83.606 75.916 83.438 76.196C83.278 76.468 83.03 76.692 82.694 76.868C82.358 77.036 81.946 77.12 81.458 77.12C80.882 77.12 80.286 77 79.67 76.76L79.85 75.512L80.006 75.416C80.254 75.624 80.53 75.792 80.834 75.92C81.138 76.04 81.406 76.1 81.638 76.1C81.854 76.1 82.022 76.048 82.142 75.944C82.262 75.832 82.322 75.7 82.322 75.548C82.322 75.38 82.246 75.244 82.094 75.14C81.95 75.036 81.718 74.92 81.398 74.792C81.07 74.648 80.802 74.52 80.594 74.408C80.386 74.288 80.206 74.12 80.054 73.904C79.91 73.688 79.838 73.42 79.838 73.1C79.838 72.58 80.034 72.156 80.426 71.828C80.818 71.492 81.35 71.324 82.022 71.324ZM84.8634 74.696L84.8034 71.528L86.3754 71.396L86.3034 74.54L86.3754 77H84.7794L84.8634 74.696ZM85.6194 68.684C85.8674 68.684 86.0594 68.756 86.1954 68.9C86.3394 69.044 86.4114 69.244 86.4114 69.5C86.4114 69.772 86.3354 69.988 86.1834 70.148C86.0314 70.308 85.8234 70.388 85.5594 70.388C85.2954 70.388 85.0914 70.316 84.9474 70.172C84.8114 70.028 84.7434 69.824 84.7434 69.56C84.7434 69.296 84.8194 69.084 84.9714 68.924C85.1314 68.764 85.3474 68.684 85.6194 68.684ZM91.3163 73.52C91.3243 73.24 91.2603 73.024 91.1243 72.872C90.9963 72.712 90.8083 72.632 90.5603 72.632C90.2003 72.632 89.8163 72.804 89.4083 73.148V74.54L89.4803 77H87.8843L87.9683 74.696L87.9083 71.528L89.4203 71.396V72.212H89.5043C89.9443 71.812 90.4243 71.524 90.9443 71.348C91.5523 71.348 92.0163 71.488 92.3363 71.768C92.6563 72.04 92.8083 72.436 92.7923 72.956L92.7563 74.552L92.8283 77H91.2203L91.3163 73.52ZM99.5999 72.176C99.3839 72.232 99.0759 72.292 98.6759 72.356L98.6519 72.404C98.7719 72.644 98.8319 72.912 98.8319 73.208C98.8319 73.808 98.6119 74.288 98.1719 74.648C97.7399 75 97.1519 75.176 96.4079 75.176C96.1839 75.176 95.9519 75.156 95.7119 75.116C95.6399 75.188 95.5919 75.244 95.5679 75.284C95.5439 75.324 95.5319 75.372 95.5319 75.428C95.5319 75.572 95.6279 75.672 95.8199 75.728C96.0119 75.784 96.3159 75.84 96.7319 75.896C97.2039 75.952 97.5959 76.02 97.9079 76.1C98.2279 76.18 98.4999 76.32 98.7239 76.52C98.9559 76.72 99.0719 77.004 99.0719 77.372C99.0719 77.748 98.9519 78.084 98.7119 78.38C98.4799 78.684 98.1559 78.92 97.7399 79.088C97.3239 79.256 96.8519 79.34 96.3239 79.34C95.5959 79.34 95.0359 79.192 94.6439 78.896C94.2519 78.6 94.0559 78.208 94.0559 77.72C94.3039 77.376 94.6359 77.076 95.0519 76.82V76.76C94.7799 76.664 94.5679 76.532 94.4159 76.364C94.2639 76.188 94.1879 75.956 94.1879 75.668C94.4039 75.404 94.6759 75.16 95.0039 74.936V74.876C94.7159 74.716 94.4959 74.508 94.3439 74.252C94.1999 73.988 94.1279 73.68 94.1279 73.328C94.1279 72.704 94.3439 72.216 94.7759 71.864C95.2079 71.512 95.7959 71.336 96.5399 71.336C96.9719 71.336 97.3639 71.408 97.7159 71.552C98.2919 71.448 98.8799 71.288 99.4799 71.072L99.5999 71.18V72.176ZM96.4559 74.216C96.7839 74.216 97.0319 74.132 97.1999 73.964C97.3679 73.796 97.4519 73.552 97.4519 73.232C97.4519 72.624 97.1399 72.32 96.5159 72.32C95.8439 72.32 95.5079 72.628 95.5079 73.244C95.5079 73.564 95.5879 73.808 95.7479 73.976C95.9079 74.136 96.1439 74.216 96.4559 74.216ZM97.7279 77.66C97.7279 77.444 97.6119 77.296 97.3799 77.216C97.1559 77.136 96.8079 77.068 96.3359 77.012L95.9279 76.952C95.7359 77.08 95.5919 77.204 95.4959 77.324C95.3999 77.444 95.3519 77.572 95.3519 77.708C95.3519 77.916 95.4479 78.084 95.6399 78.212C95.8319 78.34 96.1119 78.404 96.4799 78.404C96.8559 78.404 97.1559 78.336 97.3799 78.2C97.6119 78.072 97.7279 77.892 97.7279 77.66ZM103.096 72.308L103.936 75.5H104.02L105.028 72.392L105.232 71.42H106.624L104.752 77H103.036L101.452 71.456L102.94 71.384L103.096 72.308ZM109.571 71.312C110.387 71.312 111.011 71.552 111.443 72.032C111.875 72.512 112.091 73.204 112.091 74.108C112.091 75.084 111.859 75.832 111.395 76.352C110.931 76.864 110.263 77.12 109.391 77.12C108.575 77.12 107.951 76.88 107.519 76.4C107.087 75.92 106.871 75.228 106.871 74.324C106.871 73.348 107.103 72.604 107.567 72.092C108.031 71.572 108.699 71.312 109.571 71.312ZM109.463 72.392C109.079 72.392 108.799 72.52 108.623 72.776C108.455 73.032 108.371 73.444 108.371 74.012C108.371 74.748 108.459 75.272 108.635 75.584C108.811 75.896 109.099 76.052 109.499 76.052C109.883 76.052 110.159 75.928 110.327 75.68C110.503 75.424 110.591 75.008 110.591 74.432C110.591 73.704 110.499 73.184 110.315 72.872C110.139 72.552 109.855 72.392 109.463 72.392ZM115.501 71.312C116.317 71.312 116.941 71.552 117.373 72.032C117.805 72.512 118.021 73.204 118.021 74.108C118.021 75.084 117.789 75.832 117.325 76.352C116.861 76.864 116.193 77.12 115.321 77.12C114.505 77.12 113.881 76.88 113.449 76.4C113.017 75.92 112.801 75.228 112.801 74.324C112.801 73.348 113.033 72.604 113.497 72.092C113.961 71.572 114.629 71.312 115.501 71.312ZM115.393 72.392C115.009 72.392 114.729 72.52 114.553 72.776C114.385 73.032 114.301 73.444 114.301 74.012C114.301 74.748 114.389 75.272 114.565 75.584C114.741 75.896 115.029 76.052 115.429 76.052C115.813 76.052 116.089 75.928 116.257 75.68C116.433 75.424 116.521 75.008 116.521 74.432C116.521 73.704 116.429 73.184 116.245 72.872C116.069 72.552 115.785 72.392 115.393 72.392ZM122.129 71.408C122.201 71.408 122.301 71.416 122.429 71.432V72.908L122.261 72.968C122.125 72.912 121.977 72.884 121.817 72.884C121.353 72.884 120.933 73.184 120.557 73.784V74.54L120.641 77H119.045L119.141 74.696L119.069 71.528L120.581 71.396L120.569 72.488H120.665C121.057 71.768 121.545 71.408 122.129 71.408ZM130.397 72.176C130.181 72.232 129.873 72.292 129.473 72.356L129.449 72.404C129.569 72.644 129.629 72.912 129.629 73.208C129.629 73.808 129.409 74.288 128.969 74.648C128.537 75 127.949 75.176 127.205 75.176C126.981 75.176 126.749 75.156 126.509 75.116C126.437 75.188 126.389 75.244 126.365 75.284C126.341 75.324 126.329 75.372 126.329 75.428C126.329 75.572 126.425 75.672 126.617 75.728C126.809 75.784 127.113 75.84 127.529 75.896C128.001 75.952 128.393 76.02 128.705 76.1C129.025 76.18 129.297 76.32 129.521 76.52C129.753 76.72 129.869 77.004 129.869 77.372C129.869 77.748 129.749 78.084 129.509 78.38C129.277 78.684 128.953 78.92 128.537 79.088C128.121 79.256 127.649 79.34 127.121 79.34C126.393 79.34 125.833 79.192 125.441 78.896C125.049 78.6 124.853 78.208 124.853 77.72C125.101 77.376 125.433 77.076 125.849 76.82V76.76C125.577 76.664 125.365 76.532 125.213 76.364C125.061 76.188 124.985 75.956 124.985 75.668C125.201 75.404 125.473 75.16 125.801 74.936V74.876C125.513 74.716 125.293 74.508 125.141 74.252C124.997 73.988 124.925 73.68 124.925 73.328C124.925 72.704 125.141 72.216 125.573 71.864C126.005 71.512 126.593 71.336 127.337 71.336C127.769 71.336 128.161 71.408 128.513 71.552C129.089 71.448 129.677 71.288 130.277 71.072L130.397 71.18V72.176ZM127.253 74.216C127.581 74.216 127.829 74.132 127.997 73.964C128.165 73.796 128.249 73.552 128.249 73.232C128.249 72.624 127.937 72.32 127.313 72.32C126.641 72.32 126.305 72.628 126.305 73.244C126.305 73.564 126.385 73.808 126.545 73.976C126.705 74.136 126.941 74.216 127.253 74.216ZM128.525 77.66C128.525 77.444 128.409 77.296 128.177 77.216C127.953 77.136 127.605 77.068 127.133 77.012L126.725 76.952C126.533 77.08 126.389 77.204 126.293 77.324C126.197 77.444 126.149 77.572 126.149 77.708C126.149 77.916 126.245 78.084 126.437 78.212C126.629 78.34 126.909 78.404 127.277 78.404C127.653 78.404 127.953 78.336 128.177 78.2C128.409 78.072 128.525 77.892 128.525 77.66ZM134.117 71.408C134.189 71.408 134.289 71.416 134.417 71.432V72.908L134.249 72.968C134.113 72.912 133.965 72.884 133.805 72.884C133.341 72.884 132.921 73.184 132.545 73.784V74.54L132.629 77H131.033L131.129 74.696L131.057 71.528L132.569 71.396L132.557 72.488H132.653C133.045 71.768 133.533 71.408 134.117 71.408ZM137.521 71.312C138.337 71.312 138.961 71.552 139.393 72.032C139.825 72.512 140.041 73.204 140.041 74.108C140.041 75.084 139.809 75.832 139.345 76.352C138.881 76.864 138.213 77.12 137.341 77.12C136.525 77.12 135.901 76.88 135.469 76.4C135.037 75.92 134.821 75.228 134.821 74.324C134.821 73.348 135.053 72.604 135.517 72.092C135.981 71.572 136.649 71.312 137.521 71.312ZM137.413 72.392C137.029 72.392 136.749 72.52 136.573 72.776C136.405 73.032 136.321 73.444 136.321 74.012C136.321 74.748 136.409 75.272 136.585 75.584C136.761 75.896 137.049 76.052 137.449 76.052C137.833 76.052 138.109 75.928 138.277 75.68C138.453 75.424 138.541 75.008 138.541 74.432C138.541 73.704 138.449 73.184 138.265 72.872C138.089 72.552 137.805 72.392 137.413 72.392ZM145.454 74.408L142.214 74.432C142.286 75.432 142.794 75.932 143.738 75.932C144.234 75.932 144.786 75.792 145.394 75.512L145.526 75.596L145.286 76.784C144.678 77.008 144.106 77.12 143.57 77.12C142.69 77.12 141.998 76.864 141.494 76.352C140.998 75.84 140.75 75.132 140.75 74.228C140.75 73.332 140.994 72.624 141.482 72.104C141.97 71.576 142.63 71.312 143.462 71.312C144.174 71.312 144.722 71.508 145.106 71.9C145.498 72.284 145.694 72.824 145.694 73.52C145.694 73.704 145.674 73.936 145.634 74.216L145.454 74.408ZM144.302 73.34C144.302 73.02 144.23 72.78 144.086 72.62C143.942 72.452 143.73 72.368 143.45 72.368C143.138 72.368 142.878 72.472 142.67 72.68C142.462 72.88 142.322 73.172 142.25 73.556L144.278 73.508L144.302 73.34ZM150.227 73.52C150.235 73.24 150.171 73.024 150.035 72.872C149.907 72.712 149.719 72.632 149.471 72.632C149.111 72.632 148.727 72.804 148.319 73.148V74.54L148.391 77H146.795L146.879 74.696L146.819 71.528L148.331 71.396V72.212H148.415C148.855 71.812 149.335 71.524 149.855 71.348C150.463 71.348 150.927 71.488 151.247 71.768C151.567 72.04 151.719 72.436 151.703 72.956L151.667 74.552L151.739 77H150.131L150.227 73.52ZM159.282 74.408L156.042 74.432C156.114 75.432 156.622 75.932 157.566 75.932C158.062 75.932 158.614 75.792 159.222 75.512L159.354 75.596L159.114 76.784C158.506 77.008 157.934 77.12 157.398 77.12C156.518 77.12 155.826 76.864 155.322 76.352C154.826 75.84 154.578 75.132 154.578 74.228C154.578 73.332 154.822 72.624 155.31 72.104C155.798 71.576 156.458 71.312 157.29 71.312C158.002 71.312 158.55 71.508 158.934 71.9C159.326 72.284 159.522 72.824 159.522 73.52C159.522 73.704 159.502 73.936 159.462 74.216L159.282 74.408ZM158.13 73.34C158.13 73.02 158.058 72.78 157.914 72.62C157.77 72.452 157.558 72.368 157.278 72.368C156.966 72.368 156.706 72.472 156.498 72.68C156.29 72.88 156.15 73.172 156.078 73.556L158.106 73.508L158.13 73.34ZM162.879 75.824C163.135 75.824 163.403 75.756 163.683 75.62L163.815 75.74L163.659 76.688C163.251 76.896 162.835 77.024 162.411 77.072C161.331 76.96 160.791 76.432 160.791 75.488L160.851 74.492L160.839 72.428H160.095L160.035 72.344L160.119 71.468H160.827V70.544L162.279 70.076L162.387 70.172L162.351 71.468H163.779L163.827 71.552L163.755 72.428H162.327L162.255 75.116C162.255 75.372 162.303 75.556 162.399 75.668C162.495 75.772 162.655 75.824 162.879 75.824ZM168.915 74.408L165.675 74.432C165.747 75.432 166.255 75.932 167.199 75.932C167.695 75.932 168.247 75.792 168.855 75.512L168.987 75.596L168.747 76.784C168.139 77.008 167.567 77.12 167.031 77.12C166.151 77.12 165.459 76.864 164.955 76.352C164.459 75.84 164.211 75.132 164.211 74.228C164.211 73.332 164.455 72.624 164.943 72.104C165.431 71.576 166.091 71.312 166.923 71.312C167.635 71.312 168.183 71.508 168.567 71.9C168.959 72.284 169.155 72.824 169.155 73.52C169.155 73.704 169.135 73.936 169.095 74.216L168.915 74.408ZM167.763 73.34C167.763 73.02 167.691 72.78 167.547 72.62C167.403 72.452 167.191 72.368 166.911 72.368C166.599 72.368 166.339 72.472 166.131 72.68C165.923 72.88 165.783 73.172 165.711 73.556L167.739 73.508L167.763 73.34ZM173.687 73.52C173.695 73.24 173.631 73.024 173.495 72.872C173.367 72.712 173.179 72.632 172.931 72.632C172.571 72.632 172.187 72.804 171.779 73.148V74.54L171.851 77H170.255L170.339 74.696L170.279 71.528L171.791 71.396V72.212H171.875C172.315 71.812 172.795 71.524 173.315 71.348C173.923 71.348 174.387 71.488 174.707 71.768C175.027 72.04 175.179 72.436 175.163 72.956L175.127 74.552L175.199 77H173.591L173.687 73.52ZM178.395 69.2L177.951 74.156L177.051 74.276L176.883 74.12L176.787 69.272L176.931 69.092L178.203 69.008L178.395 69.2ZM177.363 75.38C177.611 75.38 177.803 75.452 177.939 75.596C178.083 75.74 178.155 75.94 178.155 76.196C178.155 76.468 178.079 76.684 177.927 76.844C177.775 77.004 177.567 77.084 177.303 77.084C177.039 77.084 176.835 77.012 176.691 76.868C176.555 76.724 176.487 76.52 176.487 76.256C176.487 75.992 176.563 75.78 176.715 75.62C176.875 75.46 177.091 75.38 177.363 75.38Z" fill="white"/>
<defs>
<clipPath id="clip0_45_1218">
<rect width="88.2173" height="96" fill="white" transform="translate(252.923)"/>
</clipPath>
</defs>
</svg>
