<svg width="172" height="187" viewBox="0 0 172 187" fill="none" xmlns="http://www.w3.org/2000/svg">
<g clip-path="url(#clip0_27_246)">
<path d="M85.203 180.203C83.0315 154.882 89.243 129.986 95.9493 109.342C98.1814 102.484 100.525 95.6563 101.959 87.738C103.393 79.8197 103.827 70.4772 102.181 62.771C101.171 58.024 99.3934 53.9235 99.151 48.6513C98.9591 44.5608 99.7469 40.6017 100.514 36.895C103.625 21.8461 107.817 4.87825 114.957 2.54517C111.331 13.7662 107.504 26.8153 108.615 40.5916C109.16 47.3989 110.887 53.4084 111.725 60.0541C113.16 71.3256 111.948 83.6071 109.746 94.2019C107.544 104.797 104.413 114.169 101.706 124.118C96.8987 141.823 93.4344 161.478 91.5256 181.91C89.3541 181.758 87.1826 181.617 85.0111 181.465" fill="#AE9852"/>
<path d="M87.728 180.203C86.617 166.992 87.7279 153.711 90.2327 140.712C92.586 128.572 96.2119 116.816 99.9893 105.069C103.767 93.3233 106.655 80.8196 105.514 68.2755C105.231 65.2152 104.706 62.2155 103.908 59.2462C103.11 56.2768 102.221 53.6003 101.838 50.6814C101.05 44.6114 102.706 38.4807 104.009 32.6026C105.373 26.4113 106.867 20.1797 109.18 14.2611C110.039 12.0694 111.059 9.89795 112.392 7.94866C112.766 7.40327 112.786 7.37297 113.139 6.96897C113.463 6.59527 113.806 6.25188 114.17 5.90848C114.281 5.80748 114.402 5.69638 114.523 5.60548C114.119 5.92868 114.836 5.40348 114.917 5.35298C115.038 5.28228 115.169 5.21158 115.291 5.14089C115.412 5.08029 115.543 5.00959 115.664 4.95909C115.382 5.08029 115.371 5.09039 115.634 4.98939L112.523 1.87861C108.938 12.9986 105.797 24.4519 105.898 36.2385C105.958 42.4096 107.15 48.419 108.281 54.4588C109.412 60.4985 109.917 66.0939 109.816 72.0226C109.604 83.9102 107.19 95.515 103.999 106.928C100.807 118.341 97.535 129.319 95.1413 140.763C92.3032 154.337 90.3135 168.093 89.0207 181.9L91.5457 179.375C89.3742 179.223 87.2028 179.082 85.0313 178.93C83.6678 178.839 82.5063 180.152 82.5063 181.455C82.5063 182.899 83.6678 183.889 85.0313 183.98C87.2028 184.132 89.3742 184.273 91.5457 184.425C93.0001 184.526 93.9495 183.182 94.0707 181.9C95.2221 169.689 96.929 157.539 99.3126 145.51C101.575 134.127 104.645 122.997 107.857 111.847C111.069 100.696 113.897 88.8288 114.664 76.9109C115.048 70.9015 114.927 64.8718 114.109 58.9028C113.291 52.9337 111.796 47.3989 111.23 41.5511C109.948 28.401 113.392 15.6145 117.391 3.2118C117.957 1.44431 116.078 -0.51507 114.281 0.101025C110.301 1.47461 107.827 5.19138 106.059 8.81726C103.656 13.7662 102.09 19.1091 100.737 24.4216C99.2015 30.4715 97.7067 36.6627 96.9088 42.8641C96.4644 46.2981 96.525 49.6714 97.1411 53.0852C97.6764 56.0344 98.6258 58.8826 99.353 61.7913C102.383 73.9112 100.171 86.9199 96.6866 98.6863C94.9494 104.554 92.9193 110.321 91.1619 116.179C89.4045 122.037 87.6976 128.4 86.3443 134.602C83.082 149.539 81.3953 164.922 82.678 180.193C82.7891 181.556 83.7587 182.718 85.203 182.718C86.4857 182.718 87.8391 181.556 87.728 180.193V180.203Z" fill="#AE9852"/>
<path d="M71.9518 134.167C75.6282 127.39 83.2738 124.492 87.9602 118.27C90.3033 115.169 91.6668 111.564 92.9495 108.089C95.6462 100.817 98.3429 93.5556 101.04 86.2837C102.272 82.9608 103.544 79.5672 105.534 76.4362C108.211 72.2347 111.937 68.9017 115.543 65.7202C111.513 66.9322 107.231 68.427 103.453 71.861C97.5854 77.2038 94.7776 85.4454 92.6162 92.7678C90.4548 100.08 87.8592 108.251 82.1224 113.846C80.2135 115.705 78.1128 117.109 76.113 118.775C72.5376 121.755 69.2854 125.582 66.8008 129.754C66.4776 130.289 66.1544 130.905 66.2049 131.4C66.2453 131.804 66.5382 132.016 66.821 132.188C68.3663 133.167 69.9116 134.147 71.4569 135.137" fill="#006838"/>
<path d="M74.1334 135.44C76.3756 131.42 80.1832 128.764 83.698 125.946C87.7077 122.734 90.98 119.118 93.1212 114.402C95.5856 108.968 97.444 103.221 99.5145 97.6359C101.585 92.0507 103.272 86.5765 105.736 81.3347C108.392 75.6989 112.725 71.5781 117.331 67.518C119.24 65.8313 117.22 62.5892 114.876 63.2962C108.685 65.1748 102.999 67.9018 98.8984 73.083C95.0705 77.9209 92.7879 83.7081 90.9598 89.556C89.1317 95.4038 87.7784 100.787 84.9403 105.908C83.5263 108.453 81.8295 110.756 79.6681 112.705C77.1229 115.008 74.2445 116.876 71.8003 119.3C69.1541 121.926 66.7907 124.916 64.8616 128.097C63.7911 129.865 62.9831 132.107 64.7707 133.773C66.2958 135.198 68.437 136.197 70.1944 137.308C72.9416 139.056 75.4767 134.693 72.7396 132.945C71.9013 132.41 71.0529 131.875 70.2146 131.339C69.5581 130.925 68.6087 130.501 68.1138 129.946L68.7602 131.057C68.9117 131.521 68.5683 131.481 68.9925 131.016C69.1642 130.824 69.3258 130.471 69.4571 130.259C69.851 129.632 70.255 129.016 70.6792 128.41C71.4872 127.249 72.3558 126.148 73.285 125.088C75.1737 122.926 77.2845 121.007 79.5469 119.25C81.8093 117.492 84.1929 115.604 86.0614 113.261C87.7784 111.109 89.2125 108.796 90.4043 106.312C94.8685 96.9895 95.8886 86.1826 101.837 77.5472C105.342 72.4568 110.463 69.9016 116.23 68.1543L113.776 63.9325C109.604 67.619 105.453 71.4569 102.656 76.3453C99.767 81.3953 98.05 87.1421 96.0401 92.5658C93.909 98.3227 91.8587 104.12 89.6165 109.827C88.6369 112.331 87.4552 114.856 85.7887 116.987C84.4151 118.745 82.7183 120.25 81.0013 121.654C76.8704 125.047 72.4366 128.097 69.7702 132.885C68.1845 135.723 72.5477 138.278 74.1334 135.43V135.44Z" fill="#006838"/>
<path d="M75.7998 170.052C77.8299 159.397 67.7906 149.933 67.2755 139.096C67.023 133.683 69.1743 128.491 71.2953 123.502C75.719 113.069 80.1428 102.645 84.5767 92.2123C86.5967 87.4451 88.6469 82.5668 89.061 77.4058C89.6064 70.4671 87.1421 63.6901 84.7282 57.1655C90.4346 61.7913 96.2421 66.9322 98.6459 73.8809C102.383 84.6878 96.9188 96.3027 91.4648 106.352C86.0109 116.402 80.2539 127.764 83.4354 138.743C84.4959 142.389 86.4856 145.681 87.9601 149.176C90.6063 155.438 91.5658 162.407 90.7073 169.153C90.5962 170.022 90.4043 170.992 89.6872 171.507C89.0913 171.941 88.2934 171.931 87.5562 171.911C83.5263 171.779 79.4863 171.648 75.4564 171.527" fill="#D5AF34"/>
<path d="M78.234 170.729C79.4763 163.75 76.5877 157.488 73.7092 151.307C72.3457 148.378 71.0024 145.419 70.2651 142.257C69.4369 138.743 69.8106 135.258 70.8307 131.824C72.0124 127.825 73.8001 124.017 75.4262 120.189C77.1533 116.129 78.8804 112.059 80.5973 107.998C82.3143 103.938 84.0515 99.868 85.7685 95.8078C87.3946 91.9698 89.152 88.142 90.3236 84.1222C91.6669 79.5267 91.9194 74.901 91.1821 70.1843C90.4448 65.4676 88.7884 60.9631 87.1421 56.5191L82.9203 58.9734C89.1318 64.0133 95.6058 69.6894 97.0703 77.9713C98.5348 86.2533 94.4746 95.2018 90.6367 102.534C86.4553 110.523 81.6477 118.563 80.3448 127.643C79.6985 132.198 79.9408 136.834 81.5467 141.177C83.1526 145.52 85.4857 149.206 86.8088 153.509C88.2834 158.306 88.748 163.295 88.2531 168.295C88.2127 168.709 88.1218 169.103 88.0612 169.517C88.0814 169.396 88.5965 169.547 88.0915 169.426C87.5461 169.295 86.8391 169.396 86.2735 169.376C85.516 169.355 84.7585 169.325 84.001 169.305C81.1427 169.214 78.2845 169.123 75.4262 169.032C72.174 168.931 72.1841 173.981 75.4262 174.082C78.1128 174.173 80.7993 174.254 83.496 174.345C85.8089 174.415 88.8591 175.032 90.9296 173.729C93 172.426 93.1818 169.82 93.3636 167.618C93.5555 165.285 93.5454 162.932 93.3131 160.599C92.8283 155.589 91.475 150.842 89.354 146.277C87.4047 142.076 85.2433 138.076 85.0312 133.339C84.607 123.896 89.5863 115.109 93.9191 107.069C98.252 99.0297 102.918 89.5156 102.312 79.8701C101.989 74.7798 100.181 70.0025 97.141 65.9221C94.1009 61.8418 90.3741 58.5795 86.4755 55.4081C85.5968 54.691 84.4555 54.4082 83.4152 55.0142C82.5062 55.5394 81.8699 56.8322 82.2537 57.8624C85.0413 65.3869 87.8289 73.1739 85.8493 81.2437C84.91 85.0817 83.3142 88.7177 81.779 92.3435C80.0822 96.333 78.3956 100.322 76.6988 104.302C75.002 108.281 73.3153 112.281 71.6185 116.26C69.9217 120.24 68.1744 124.047 66.7302 128.047C65.3768 131.794 64.4173 135.834 64.7607 139.843C65.0435 143.197 66.0434 146.358 67.3361 149.438C69.9116 155.579 74.5677 162.417 73.3254 169.396C73.083 170.739 73.689 172.113 75.0929 172.507C76.315 172.84 77.9613 172.092 78.2037 170.739L78.234 170.729Z" fill="#D5AF34"/>
<path d="M83.1729 149.236C81.4963 141.712 74.9516 136.824 72.1438 129.552C70.7399 125.926 70.4268 122.078 70.144 118.391C69.5481 110.665 68.9522 102.928 68.3563 95.2019C68.0836 91.6669 67.8008 88.0612 66.7403 84.496C65.3163 79.7187 62.6499 75.4969 60.0542 71.4368C63.5993 73.7092 67.3059 76.315 69.9925 80.658C74.1638 87.4148 74.6082 96.1109 74.6688 103.736C74.7395 111.362 74.9819 119.926 78.9714 126.885C80.2944 129.198 81.9306 131.127 83.3951 133.268C86.0211 137.117 88.0916 141.682 89.3339 146.378C89.4955 146.984 89.6369 147.671 89.4551 148.125C89.3036 148.509 88.9602 148.62 88.637 148.721C86.8796 149.236 85.1323 149.762 83.3749 150.277" fill="#006838"/>
<path d="M85.607 148.57C84.5061 143.873 81.6882 140.035 78.9309 136.187C77.5674 134.278 76.2242 132.339 75.1738 130.228C74.0325 127.936 73.4265 125.401 73.0831 122.876C72.2852 117.078 72.1034 111.15 71.6489 105.322C71.1944 99.4943 71.0227 93.404 70.0127 87.5562C68.9118 81.1326 65.6798 75.5878 62.2156 70.1742L58.7614 73.6284C63.2862 76.5473 67.2352 79.9206 69.3865 84.9908C71.5378 90.061 71.9721 95.8482 72.0933 101.343C72.2145 106.837 72.1741 112.564 73.2144 118.108C73.7699 121.078 74.6789 123.956 75.9919 126.673C77.3048 129.39 79.2238 131.703 80.9408 134.167C82.8699 136.945 84.4758 139.965 85.6474 143.136C85.9403 143.924 86.2029 144.722 86.4453 145.52C86.5564 145.883 86.6978 147.277 87.0008 147.489L87.9603 146.277C87.7179 146.348 87.4856 146.418 87.2432 146.489C86.6877 146.651 86.1221 146.823 85.5666 146.984C84.6071 147.267 83.6476 147.55 82.6982 147.832C79.5874 148.752 80.9105 153.63 84.0415 152.701C85.7888 152.186 87.5866 151.741 89.3035 151.145C91.0205 150.549 92.1517 149.246 92.0305 147.297C91.9295 145.722 91.3336 144.126 90.8185 142.641C90.2226 140.924 89.5257 139.237 88.7581 137.601C87.3038 134.521 85.4252 131.774 83.4254 129.037C81.5569 126.481 80.0217 123.855 79.0723 120.825C75.4364 109.109 78.8501 96.434 74.689 84.7787C73.4568 81.3245 71.6489 78.143 69.1542 75.4464C66.8817 72.9921 64.1143 71.0428 61.3066 69.245C59.1957 67.8815 56.5091 70.5883 57.8524 72.6992C60.7713 77.2644 63.6397 81.8901 64.8213 87.2431C66.0636 92.8687 66.0939 98.8277 66.5383 104.554C66.9827 110.281 67.2756 116.331 67.9523 122.179C68.2755 124.976 68.73 127.764 69.7703 130.39C70.6793 132.683 71.8711 134.804 73.2548 136.844C76.0727 140.995 79.5571 144.883 80.7287 149.893C81.466 153.054 86.3443 151.721 85.5969 148.55L85.607 148.57Z" fill="#006838"/>
<path d="M89.5963 174.809C80.5973 163.215 80.5872 148.024 73.1739 135.167C69.4773 128.754 64.3061 123.573 59.3067 118.634C48.8634 108.291 38.42 97.9491 27.9767 87.6068C23.1995 82.88 18.3313 78.0421 14.362 72.1741C9.02927 64.3063 5.8276 55.3779 2.78752 46.7627C2.26232 54.5194 2.03003 62.9125 5.3832 72.0125C10.5948 86.1625 22.6036 97.4643 33.461 106.938C44.3184 116.412 56.3373 127.299 62.0438 141.429C63.9425 146.116 64.9626 150.782 66.4675 155.478C69.1743 163.881 73.5173 172.406 78.9106 179.92C79.6075 180.89 80.4256 181.94 81.274 182.243C81.981 182.496 82.5163 182.162 82.991 181.829C85.617 180.011 88.2328 178.193 90.8588 176.385" fill="#D5AF34"/>
<path d="M91.7779 173.537C86.0917 166.124 84.001 157.064 81.2841 148.307C79.8701 143.752 78.2441 139.217 75.9716 135.006C73.5476 130.521 70.3358 126.491 66.8917 122.765C63.4477 119.038 59.4986 115.26 55.7616 111.564C51.7318 107.564 47.6918 103.575 43.6619 99.5751C39.6321 95.5756 35.5921 91.5861 31.5622 87.5865C27.9263 83.9808 24.2297 80.4055 20.8866 76.517C13.2612 67.6493 9.08991 56.9838 5.25194 46.096C4.30255 43.3994 0.48478 43.8741 0.292881 46.7626C-0.0909157 52.5196 -0.171715 58.2463 0.727178 63.9729C1.62607 69.6996 3.80765 75.6181 6.77703 80.8499C12.2209 90.4448 20.1493 98.4237 28.3101 105.736C36.39 112.978 44.7729 119.916 51.5096 128.491C54.7718 132.632 57.6604 137.228 59.6501 142.116C62.0034 147.913 63.1851 154.105 65.4071 159.952C67.8815 166.477 71.0731 172.729 74.9313 178.546C76.6382 181.112 79.0116 185.647 82.7688 184.758C84.3848 184.374 85.8796 182.95 87.2128 182.021C88.8692 180.869 90.5256 179.728 92.1819 178.577C93.303 177.799 93.8181 176.365 93.0909 175.123C92.4445 174.012 90.7579 173.436 89.6368 174.214C88.3238 175.123 87.0108 176.032 85.7079 176.941C85.0918 177.375 84.4656 177.799 83.8495 178.233C83.3546 178.577 81.9204 179.253 81.6376 179.769L81.4861 179.869C82.2941 180.061 82.5264 180.061 82.183 179.869C82.183 179.819 81.5669 179.213 81.5871 179.243C81.1326 178.708 80.7488 178.112 80.3448 177.536C79.456 176.264 78.6076 174.971 77.7896 173.658C74.7495 168.77 72.1336 163.599 70.1237 158.195C67.9926 152.479 66.821 146.449 64.5284 140.783C62.5387 135.874 59.9026 131.309 56.7312 127.067C50.4188 118.613 42.6014 111.584 34.7033 104.665C26.8052 97.747 19.1595 90.6569 13.3925 81.971C10.009 76.8705 7.41332 71.3458 6.11043 65.3465C4.80755 59.3471 4.93884 52.9741 5.35294 46.7828L0.39388 47.4494C3.84805 57.2161 7.45372 67.1241 13.6753 75.5171C19.8968 83.9101 28.2394 91.3942 35.8345 98.9186C43.8437 106.847 51.9035 114.725 59.8521 122.714C63.3871 126.269 66.8311 129.946 69.5985 134.147C72.2043 138.106 74.0627 142.429 75.5575 146.913C78.8904 156.882 80.9003 167.568 87.435 176.092C88.2632 177.173 89.6065 177.749 90.8891 177.001C91.9496 176.375 92.6263 174.638 91.7981 173.547L91.7779 173.537Z" fill="#D5AF34"/>
<path d="M76.1534 170.982C85.7281 165.154 86.3947 151.186 94.4242 143.348C98.4338 139.439 103.878 137.46 109.13 135.601C120.118 131.713 131.097 127.825 142.086 123.936C147.105 122.159 152.226 120.33 156.488 117.078C162.205 112.715 165.82 106.221 169.254 99.9286C169.456 107.352 169.325 115.2 165.548 121.765C159.68 131.976 147.075 135.904 135.713 138.773C124.34 141.641 111.756 145.176 105.383 155.094C103.262 158.387 102.039 162.134 100.312 165.639C97.2218 171.911 92.4749 177.415 86.6977 181.425C85.9503 181.94 85.0817 182.465 84.2131 182.283C83.4859 182.132 82.9607 181.546 82.4962 180.98C79.9308 177.9 77.3553 174.809 74.7899 171.729" fill="#D5AF34"/>
<path d="M77.436 173.163C83.3243 169.507 86.2331 163.275 88.9701 157.185C90.3336 154.155 91.7072 151.105 93.5656 148.348C95.5755 145.358 98.2924 143.136 101.474 141.459C105.16 139.52 109.19 138.268 113.109 136.884C117.735 135.248 122.371 133.612 126.996 131.966C131.622 130.319 136.258 128.693 140.884 127.047C145.045 125.572 149.267 124.158 153.196 122.128C161.902 117.624 166.881 109.544 171.446 101.211L166.74 99.9387C166.861 104.736 166.911 109.625 165.77 114.311C164.73 118.593 162.659 122.381 159.478 125.421C153.6 131.046 145.388 133.612 137.702 135.652C129.441 137.854 120.946 139.732 113.513 144.146C109.826 146.338 106.574 149.146 104.039 152.61C101.1 156.63 99.7468 161.488 97.3834 165.82C95.02 170.153 91.5658 174.355 87.5663 177.637C86.7179 178.334 85.6877 179.334 84.6676 179.738C84.4858 179.809 84.7888 179.799 84.8393 179.819C84.6878 179.748 84.5363 179.465 84.4151 179.334C83.8798 178.718 83.3748 178.082 82.8496 177.456C80.7589 174.951 78.6783 172.446 76.5876 169.941C75.7191 168.891 73.9213 169.042 73.0123 169.941C71.972 170.982 72.1336 172.456 73.0123 173.517C74.9414 175.829 76.8603 178.142 78.7894 180.455C80.567 182.596 82.3951 185.465 85.6271 184.717C88.0308 184.172 90.273 181.99 92.0708 180.415C93.8686 178.839 95.6664 176.991 97.2218 175.052C100.555 170.911 102.746 166.396 104.878 161.558C106.786 157.236 109.2 153.448 112.998 150.539C119.886 145.267 128.673 143.156 136.914 141.066C145.156 138.975 154.327 136.177 161.316 130.501C165.427 127.168 168.436 122.734 170.052 117.704C171.89 111.998 171.931 105.857 171.779 99.9286C171.719 97.5046 168.315 96.3936 167.073 98.656C163.295 105.564 159.326 112.705 152.337 116.816C148.762 118.927 144.843 120.28 140.944 121.664C136.389 123.27 131.844 124.885 127.289 126.491C122.663 128.128 118.028 129.764 113.402 131.41C109.241 132.885 105.019 134.248 100.989 136.076C97.3935 137.702 93.9797 139.884 91.3941 142.894C89.2024 145.439 87.536 148.348 86.0917 151.378C83.1728 157.478 80.9306 165.033 74.8808 168.8C72.1235 170.517 74.6586 174.88 77.4259 173.163H77.436Z" fill="#D5AF34"/>
<path d="M84.9605 182.819C80.0722 158.205 94.0504 133.996 109.12 113.937C114.129 107.261 119.391 100.636 122.623 92.9395C125.845 85.2433 126.815 76.1534 123.118 68.6693C120.835 64.0537 116.856 60.0642 116.311 54.9436C115.886 50.9642 117.654 47.1161 119.381 43.5105C126.37 28.8858 135.793 12.3825 151.852 10.1201C143.702 21.028 135.107 33.7135 137.601 47.106C138.833 53.7316 142.702 59.5592 144.601 66.0232C147.822 76.9816 145.106 88.9197 140.157 99.2216C135.208 109.524 128.168 118.634 122.088 128.299C111.271 145.51 103.494 164.619 99.2014 184.485C94.3231 184.344 89.4449 184.202 84.5666 184.051" fill="#42B649"/>
<path d="M87.3946 182.152C84.809 168.81 88.1521 155.205 93.8686 143.116C96.8582 136.793 100.454 130.764 104.352 124.956C108.251 119.159 112.574 113.695 116.664 108.029C124.471 97.2118 131.572 83.0214 126.249 69.538C125.067 66.5383 123.259 63.9426 121.563 61.2257C119.866 58.5089 118.502 55.8526 118.826 52.661C119.149 49.4694 120.846 46.2678 122.27 43.3388C123.522 40.7633 124.815 38.2181 126.198 35.7234C131.966 25.3205 139.934 14.4227 152.529 12.5542L149.681 8.84756C142.54 18.4122 134.955 29.2494 134.652 41.6521C134.501 48.0555 136.854 53.772 139.399 59.5088C141.944 65.2455 143.611 70.6995 143.469 76.9109C143.197 89.4045 137.127 100.737 130.511 110.988C127.037 116.361 123.34 121.593 119.926 127.017C116.563 132.37 113.493 137.904 110.725 143.591C104.504 156.387 99.8074 169.901 96.7875 183.798L99.2216 181.94C94.3433 181.799 89.4651 181.657 84.5868 181.506C81.3346 181.415 81.3346 186.465 84.5868 186.556C89.4651 186.697 94.3433 186.838 99.2216 186.99C100.272 187.02 101.423 186.192 101.656 185.132C104.312 172.911 108.231 160.962 113.442 149.6C116.048 143.924 118.957 138.389 122.158 133.016C125.36 127.643 129.067 122.28 132.602 116.957C139.53 106.544 146.136 95.4342 147.974 82.8497C148.893 76.5675 148.661 70.1238 146.641 64.0638C144.742 58.3675 141.52 53.1559 140.207 47.2576C137.258 33.9661 146.56 21.3715 154.024 11.3624C154.61 10.5746 154.387 9.26166 153.822 8.55467C153.135 7.69617 152.226 7.49417 151.165 7.64567C139.288 9.40306 130.713 18.6748 124.623 28.3707C121.431 33.4409 118.654 38.8342 116.21 44.3084C114.664 47.7727 113.361 51.449 113.826 55.2971C114.23 58.6503 115.826 61.6095 117.624 64.4173C119.421 67.2251 121.27 69.9622 122.169 73.2346C123.067 76.5069 123.158 79.7591 122.744 83.0214C121.876 89.8691 118.634 96.0907 114.856 101.767C111.079 107.443 106.352 113.22 102.262 119.058C98.1712 124.896 94.3332 130.976 91.0709 137.339C83.7889 151.57 79.4156 167.467 82.5163 183.455C82.7789 184.798 84.3848 185.556 85.6271 185.222C87.031 184.839 87.6471 183.455 87.3946 182.112V182.152Z" fill="#39B54A"/>
<path d="M88.5459 182.819C93.4343 158.205 79.456 133.996 64.3869 113.937C59.3774 107.261 54.1153 100.636 50.8833 92.9395C47.6615 85.2433 46.6919 76.1534 50.3884 68.6693C52.671 64.0537 56.6504 60.0642 57.1958 54.9436C57.62 50.9642 55.8525 47.1161 54.1254 43.5105C47.1363 28.8858 37.713 12.3825 21.6542 10.1201C29.8048 21.028 38.3998 33.7135 35.9052 47.106C34.673 53.7316 30.8047 59.5592 28.9059 66.0232C25.684 76.9816 28.4009 88.9197 33.3499 99.2216C38.2887 109.513 45.3385 118.634 51.4186 128.299C62.2357 145.51 70.0126 164.619 74.3051 184.485C79.1833 184.344 84.0616 184.202 88.9398 184.051" fill="#42B649"/>
<path d="M90.98 183.495C93.7272 169.315 90.6063 155.155 84.7383 142.166C81.7992 135.662 78.1935 129.471 74.2546 123.522C70.3156 117.573 65.9322 111.968 61.7307 106.211C54.1052 95.7573 46.0354 81.3245 53.3174 68.5481C54.893 65.7807 56.8928 63.2457 58.2058 60.3268C59.7511 56.913 60.145 53.4083 59.2663 49.7522C58.4482 46.3283 56.7514 43.1266 55.2061 39.9855C53.9133 37.3596 52.57 34.7538 51.1257 32.2086C44.8335 21.0987 35.7537 9.67569 22.3208 7.68601C21.2906 7.53451 20.3311 7.7062 19.6645 8.595C19.109 9.33229 18.8666 10.5847 19.4625 11.4028C26.2597 20.523 34.1478 31.1582 33.7943 43.1165C33.6125 49.0957 30.7946 54.4082 28.512 59.8016C26.0173 65.71 24.6741 71.8104 25.0276 78.244C25.7143 91.0204 31.5824 102.595 38.3796 113.17C41.8439 118.553 45.5405 123.785 48.9644 129.198C52.3882 134.612 55.2869 139.813 58.0139 145.348C64.2354 157.993 68.8511 171.396 71.8407 185.162C72.073 186.212 73.2143 187.05 74.2748 187.02C79.153 186.879 84.0313 186.737 88.9095 186.586C92.1516 186.495 92.1617 181.445 88.9095 181.536C84.0313 181.677 79.153 181.819 74.2748 181.97L76.7088 183.829C74.0122 171.396 69.952 159.286 64.6899 147.711C62.0741 141.954 59.1451 136.339 55.9232 130.905C52.7013 125.471 49.0452 120.149 45.5001 114.846C38.6927 104.635 31.9864 93.7676 30.3502 81.3548C29.5422 75.2141 30.2189 69.1642 32.4611 63.3972C34.7235 57.5796 37.8141 52.1458 38.6119 45.8637C40.3895 31.9763 31.6834 19.4221 23.8156 8.8677L20.9674 12.5744C32.1278 14.2308 39.7229 23.0682 45.2678 32.2288C48.2978 37.2384 51.2166 42.5812 53.3881 48.0251C54.6102 51.0854 55.196 54.1557 54.0244 57.3069C52.9538 60.1955 50.9238 62.6902 49.3482 65.3161C45.7425 71.3256 44.8739 78.1531 45.9647 85.011C47.0555 91.8688 50.237 98.2419 54.0345 103.999C57.8321 109.756 62.3367 115.23 66.3665 120.936C70.3964 126.643 74.194 132.561 77.4461 138.763C84.4151 152.014 89.0206 167.144 86.1018 182.172C85.8392 183.505 86.4755 184.899 87.8693 185.283C89.1115 185.626 90.7174 184.869 90.98 183.515V183.495Z" fill="#39B54A"/>
<path d="M60.9227 130.713C67.0231 140.682 71.2751 151.62 73.5476 163.083C73.8102 164.427 75.406 165.194 76.6584 164.851C78.0522 164.467 78.6885 163.083 78.4259 161.74C76.0726 149.883 71.5983 138.47 65.296 128.158C63.5992 125.39 59.236 127.926 60.9328 130.703L60.9227 130.713Z" fill="#35AC46"/>
<path d="M92.4748 171.87C94.3332 156.751 104.16 143.974 113.099 132.238C113.927 131.157 113.271 129.41 112.19 128.784C110.887 128.027 109.564 128.602 108.736 129.693C99.1105 142.328 89.4045 155.67 87.4148 171.88C87.2532 173.234 88.6975 174.405 89.9398 174.405C91.4446 174.405 92.293 173.244 92.4647 171.88L92.4748 171.87Z" fill="#35AC46"/>
<path d="M132.481 31.239C130.44 35.7133 128.319 40.1673 126.461 44.7224C124.724 48.9947 123.35 53.4992 123.28 58.1553C123.209 62.8114 124.825 67.2351 126.4 71.6286C127.976 76.022 128.946 80.2034 129.188 84.708C129.461 89.9195 128.814 95.0705 127.289 100.05C126.34 103.161 131.208 104.494 132.157 101.393C134.864 92.5354 135.016 82.9102 132.481 73.992C131.279 69.7601 129.249 65.7403 128.532 61.3671C127.814 56.9938 128.925 52.5599 130.4 48.4796C132.218 43.4599 134.632 38.6422 136.844 33.7943C137.409 32.552 137.197 31.0774 135.935 30.3401C134.854 29.7038 133.046 29.9967 132.481 31.2491V31.239Z" fill="#35AC46"/>
<path d="M37.0768 30.3705C39.127 34.6932 41.3187 38.9756 43.167 43.3893C44.8739 47.4898 46.2374 51.853 45.9647 56.3475C45.692 60.8419 43.47 65.0233 42.0762 69.2451C40.6824 73.4668 39.8845 78.1431 39.7734 82.6881C39.6522 87.8491 40.4198 93.0506 41.9954 97.9692C42.9852 101.05 47.8635 99.7367 46.8636 96.6259C44.0962 87.9905 44.1467 78.739 47.0858 70.144C48.6008 65.7202 50.5803 61.5186 50.9843 56.802C51.3883 52.0853 50.1461 47.3888 48.4493 43.056C46.4091 37.8545 43.8437 32.8652 41.45 27.8253C40.8642 26.5931 39.0967 26.2699 37.9958 26.9163C36.7334 27.6536 36.5011 29.1383 37.0869 30.3705H37.0768Z" fill="#35AC46"/>
<path d="M126.532 138.702C131.663 138.834 136.864 137.319 141.096 134.39C142.177 133.642 142.783 132.137 142.005 130.935C141.308 129.855 139.712 129.229 138.551 130.026C137.611 130.673 136.632 131.259 135.612 131.754C135.339 131.885 135.066 132.016 134.783 132.137C135.278 131.915 134.42 132.279 134.329 132.309C133.834 132.501 133.329 132.662 132.824 132.814C132.319 132.965 131.804 133.097 131.279 133.218C130.986 133.289 130.683 133.339 130.39 133.4C130.289 133.42 129.35 133.561 129.936 133.481C128.804 133.632 127.663 133.672 126.532 133.642C125.209 133.612 123.946 134.824 124.007 136.167C124.067 137.51 125.118 138.652 126.532 138.692V138.702Z" fill="#CAA731"/>
<path d="M162.76 110.786C162.003 111.806 161.245 112.826 160.468 113.836C160.437 113.867 160.154 114.24 160.316 114.038C160.478 113.836 160.185 114.21 160.154 114.24C159.963 114.483 159.771 114.725 159.589 114.967C159.185 115.483 158.781 115.998 158.367 116.513C156.771 118.502 155.145 120.452 153.468 122.371C152.6 123.371 152.418 124.976 153.468 125.946C154.418 126.815 156.114 127.007 157.044 125.946C160.579 121.886 163.932 117.664 167.123 113.331C167.911 112.261 167.335 110.463 166.214 109.877C164.901 109.18 163.599 109.645 162.76 110.786Z" fill="#CAA731"/>
<path d="M89.1924 68.8411C90.7276 74.3153 91.4548 80.3651 90.4549 86.011C89.455 91.6568 86.6169 96.222 83.5769 100.777C81.769 103.484 86.1422 106.019 87.94 103.322C91.2932 98.3026 94.4444 92.9193 95.4039 86.8695C96.424 80.4358 95.8079 73.7497 94.0606 67.4978C93.1819 64.377 88.3137 65.7 89.1924 68.8411Z" fill="#CAA731"/>
<path d="M4.9186 66.6696C6.56489 73.6587 10.413 80.1227 15.7962 84.8898C16.8163 85.7887 18.3616 85.8998 19.3716 84.8898C20.2907 83.9707 20.4018 82.2235 19.3716 81.3145C16.8567 79.0925 14.9983 76.8705 13.3217 74.0728C11.6451 71.2751 10.5746 68.6189 9.79686 65.3263C9.48376 64.0032 7.96878 63.2154 6.68609 63.5588C5.3226 63.9325 4.6055 65.3364 4.9186 66.6696Z" fill="#CAA731"/>
<path d="M100.524 102.797C101.07 105.473 99.9185 108.271 98.8883 110.695C97.5753 113.776 96.2219 116.836 94.8887 119.906C94.3433 121.159 94.515 122.613 95.7977 123.36C96.8683 123.987 98.7065 123.714 99.2519 122.451C100.767 118.967 102.312 115.503 103.777 111.998C105.241 108.493 106.14 105.13 105.393 101.454C105.12 100.12 103.534 99.3428 102.282 99.6862C100.888 100.07 100.242 101.454 100.514 102.797H100.524Z" fill="#9F8B4A"/>
<path d="M104.009 19.7858C102.908 27.6738 102.211 35.5922 101.999 43.5509C101.908 46.8031 106.958 46.8031 107.049 43.5509C107.251 36.0467 107.847 28.5626 108.877 21.1291C109.069 19.7757 108.554 18.4223 107.11 18.0183C105.928 17.6951 104.191 18.4223 103.999 19.7858H104.009Z" fill="#9F8B4A"/>
<path d="M67.2957 91.6164C68.0027 98.0198 68.7905 104.413 69.6692 110.806C69.851 112.16 71.5882 112.897 72.78 112.574C74.2343 112.17 74.7292 110.826 74.5474 109.463C73.7395 103.524 73.0123 97.5754 72.3558 91.6164C72.2043 90.263 71.3054 89.0914 69.8308 89.0914C68.5784 89.0914 67.1543 90.2529 67.3058 91.6164H67.2957Z" fill="#006134"/>
<path d="M105.837 69.144L104.08 70.5378C103.837 70.7701 103.655 71.0327 103.554 71.3458C103.393 71.6488 103.322 71.972 103.332 72.3154C103.322 72.6588 103.393 72.9921 103.554 73.285C103.655 73.5981 103.827 73.8708 104.08 74.093L104.595 74.4869C104.989 74.7192 105.413 74.8303 105.867 74.8303L106.534 74.7394C106.958 74.6182 107.332 74.4061 107.645 74.093L109.402 72.6992C109.645 72.4669 109.826 72.2043 109.927 71.8912C110.089 71.5882 110.16 71.265 110.15 70.9216C110.16 70.5782 110.089 70.2449 109.927 69.952C109.826 69.6389 109.655 69.3662 109.402 69.144L108.887 68.7501C108.493 68.5178 108.069 68.4067 107.615 68.4067L106.948 68.4976C106.524 68.6188 106.15 68.8309 105.837 69.144Z" fill="#006134"/>
</g>
<defs>
<clipPath id="clip0_27_246">
<rect width="171.84" height="187" fill="white"/>
</clipPath>
</defs>
</svg>
