<svg width="64" height="64" viewBox="0 0 64 64" fill="none" xmlns="http://www.w3.org/2000/svg">
<circle cx="32" cy="32" r="32" fill="#D9D9D9" fill-opacity="0.7"/>
<g clip-path="url(#clip0_47_3138)">
<path d="M23.19 34.5203C26.962 31.5004 31.1326 28.3346 35.9655 28.3122C39.788 28.2953 43.3355 30.2992 46.3217 32.6904C49.3416 35.1041 52.1369 38.2586 52.5859 42.098C53.035 45.9374 50.1442 50.2932 46.2824 50.1079C43.8968 49.9901 41.7245 48.2612 39.3446 48.5026C36.9365 48.7496 35.247 50.8769 33.5294 52.5889C31.3403 54.7725 28.6909 56.4901 25.8057 57.6015C25.2051 57.8316 24.5708 58.0393 23.9253 58.0056C22.0056 57.8934 20.9223 55.8333 20.0859 54.0989C17.8688 49.4905 14.7928 45.2975 11.0656 41.7949C10.0216 40.8126 8.8204 39.6339 9.01124 38.2081C9.09544 37.5794 9.44907 37.0181 9.85321 36.5298C11.5596 34.4586 14.3493 33.3247 17.0212 33.6222C19.5246 33.8972 22.2751 35.2781 24.3631 33.8692L23.1844 34.5259L23.19 34.5203Z" fill="#8A6614"/>
<path d="M23.465 32.6231C27.237 29.6032 31.4076 26.4374 36.2405 26.415C40.063 26.3981 43.6105 28.402 46.5967 30.7932C49.6166 33.2068 52.4119 36.3614 52.861 40.2008C53.31 44.0402 50.4193 48.396 46.5574 48.2107C44.1718 48.0929 41.9996 46.364 39.6196 46.6054C37.2116 46.8524 35.522 48.9797 33.8044 50.6917C31.6153 52.8752 28.9659 54.5929 26.0807 55.7043C25.4801 55.9344 24.8459 56.1421 24.2003 56.1084C22.2807 55.9961 21.1973 53.9361 20.361 52.2017C18.1438 47.5933 15.0678 43.4003 11.3407 39.8977C10.2966 38.9154 9.09542 37.7366 9.28627 36.3109C9.37046 35.6822 9.72409 35.1209 10.1282 34.6326C11.8346 32.5613 14.6243 31.4275 17.2962 31.725C19.7997 32 22.5501 33.3809 24.6382 31.972L23.4594 32.6287L23.465 32.6231Z" fill="#C49026"/>
<path d="M36.5492 43.7595C36.6502 43.6978 36.7513 43.6416 36.8579 43.5911L36.5211 43.7315C36.7008 43.6585 36.8804 43.608 37.0712 43.5799L36.7008 43.6304C36.9534 43.6023 37.2003 43.608 37.4529 43.636L37.0825 43.5855C37.554 43.6529 38.003 43.8044 38.4408 43.9897L38.104 43.8493C38.3679 43.9616 38.6317 44.0907 38.8899 44.2198C39.2267 44.3938 39.5971 44.4612 39.9732 44.3601C40.2988 44.2703 40.6524 44.0177 40.8096 43.7146C41.1464 43.0747 41.006 42.1485 40.3044 41.7949C38.7383 40.9979 36.7737 40.2794 35.1403 41.329C34.8372 41.5255 34.5958 41.8118 34.4948 42.1654C34.405 42.5022 34.4443 42.9512 34.6351 43.2487C35.0337 43.8662 35.8925 44.1749 36.5548 43.7539L36.5492 43.7595Z" fill="#B48622"/>
<path d="M36.5717 44.1637C36.6727 44.1019 36.7737 44.0458 36.8804 43.9953L36.5436 44.1356C36.7232 44.0627 36.9028 44.0121 37.0937 43.9841L36.7232 44.0346C36.9758 44.0065 37.2228 44.0121 37.4754 44.0402L37.1049 43.9897C37.5764 44.057 38.0255 44.2086 38.4633 44.3938L38.1265 44.2535C38.3903 44.3658 38.6541 44.4949 38.9123 44.624C39.2491 44.798 39.6196 44.8653 39.9957 44.7643C40.3212 44.6745 40.6749 44.4219 40.832 44.1188C41.1688 43.4789 41.0285 42.5527 40.3269 42.1991C38.7608 41.402 36.7962 40.6836 35.1628 41.7332C34.8597 41.9297 34.6183 42.2159 34.5173 42.5696C34.4275 42.9064 34.4667 43.3554 34.6576 43.6529C35.0561 44.2703 35.9149 44.5791 36.5773 44.1581L36.5717 44.1637Z" fill="#C49026"/>
<path d="M33.6865 30.8381C33.8493 30.81 34.0177 30.782 34.1805 30.7595L33.81 30.81C34.68 30.6922 35.5613 30.6922 36.4313 30.8044L36.0609 30.7539C36.1002 30.7539 36.1451 30.7651 36.1844 30.7707C36.3696 30.8269 36.5548 30.8381 36.7457 30.7932C36.9309 30.782 37.1049 30.7314 37.2677 30.6248C37.5596 30.4564 37.8346 30.1196 37.9132 29.7884C37.9974 29.4292 37.9749 29.0251 37.7729 28.7051C37.5876 28.4188 37.2845 28.1101 36.9365 28.0596C36.2742 27.9642 35.6118 27.8968 34.9439 27.9137C34.2759 27.9305 33.6079 28.0091 32.9568 28.1326C32.6256 28.1943 32.2832 28.4974 32.1205 28.7781C31.9464 29.0812 31.8679 29.5246 31.9801 29.8614C32.0924 30.1982 32.3001 30.5294 32.6256 30.6978C32.9737 30.883 33.3161 30.9111 33.709 30.8381H33.6865Z" fill="#B48622"/>
<path d="M33.5856 31.1075C33.7483 31.0794 33.9167 31.0514 34.0795 31.0289L33.7091 31.0794C34.5791 30.9616 35.4603 30.9616 36.3304 31.0738L35.9599 31.0233C35.9992 31.0233 36.0441 31.0345 36.0834 31.0401C36.2686 31.0963 36.4539 31.1075 36.6447 31.0626C36.83 31.0514 37.004 31.0009 37.1667 30.8942C37.4586 30.7258 37.7337 30.389 37.8123 30.0579C37.8964 29.6986 37.874 29.2945 37.6719 28.9745C37.4867 28.6882 37.1836 28.3795 36.8356 28.329C36.1732 28.2336 35.5109 28.1662 34.8429 28.1831C34.1749 28.1999 33.507 28.2785 32.8559 28.402C32.5247 28.4637 32.1823 28.7668 32.0195 29.0475C31.8455 29.3506 31.7669 29.794 31.8792 30.1308C31.9914 30.4676 32.1991 30.7988 32.5247 30.9672C32.8727 31.1524 33.2151 31.1805 33.608 31.1075H33.5856Z" fill="#C49026"/>
<path d="M14.1754 33.9478C13.3109 33.6896 12.4353 34.1218 11.9526 34.8347C11.5372 35.4465 11.5709 36.1762 11.6775 36.8666C11.8122 37.7535 12.1771 38.6348 12.671 39.3813C12.8731 39.6844 13.1482 39.9258 13.5074 40.0268C13.8442 40.1166 14.2932 40.0773 14.5907 39.8865C14.8882 39.6956 15.152 39.4037 15.2362 39.0501C15.3204 38.6965 15.3036 38.2811 15.0959 37.9668C14.9051 37.6749 14.7367 37.3662 14.602 37.0462L14.7423 37.383C14.5627 36.9508 14.4392 36.5018 14.3718 36.0359L14.4223 36.4063C14.4055 36.2492 14.3999 36.0976 14.4167 35.9404L14.3662 36.3109C14.3774 36.2323 14.3999 36.1594 14.4223 36.0864L14.282 36.4232C14.3101 36.3614 14.3381 36.3053 14.3774 36.2492L14.1585 36.5354C14.1978 36.4849 14.2427 36.4456 14.2876 36.4007L14.0014 36.6196C14.0519 36.5803 14.1024 36.5523 14.1585 36.5242L13.8217 36.6645C13.8666 36.6477 13.9059 36.6365 13.9508 36.6309L13.5804 36.6814C13.6253 36.6814 13.6646 36.6814 13.7151 36.6814L13.3446 36.6309C13.3727 36.6309 13.4064 36.6421 13.4344 36.6533C14.1361 36.861 14.9949 36.4007 15.1633 35.671C15.3317 34.9413 14.9387 34.1667 14.181 33.9422L14.1754 33.9478Z" fill="#B48622"/>
<path d="M21.9607 48.6373C22 48.9292 22.0281 49.2211 22.1179 49.5074C22.2077 49.7936 22.32 50.0518 22.4547 50.31C22.668 50.7254 22.9711 51.1127 23.3079 51.4327C23.6447 51.7526 24.0376 52.0501 24.4586 52.2409C24.7224 52.3588 24.9918 52.4767 25.2725 52.5497C25.5531 52.6226 25.8562 52.6619 26.1425 52.6844C26.4849 52.7124 26.9003 52.5104 27.136 52.2746C27.3718 52.0389 27.5626 51.6291 27.5458 51.2811C27.529 50.9331 27.4111 50.5402 27.136 50.2876C26.861 50.035 26.5298 49.9059 26.1425 49.8778C26.092 49.8778 26.0359 49.8666 25.9853 49.861L26.3558 49.9115C26.0976 49.8778 25.845 49.8048 25.6093 49.7038L25.9461 49.8441C25.7047 49.7375 25.4802 49.6084 25.2725 49.4512L25.5587 49.6701C25.3286 49.4961 25.1265 49.2941 24.9525 49.0639L25.1714 49.3502C25.0143 49.1425 24.8852 48.918 24.7785 48.6766L24.9188 49.0134C24.8234 48.7833 24.7561 48.5475 24.7224 48.3005L24.7729 48.671V48.6317C24.7729 48.4409 24.7336 48.2556 24.6494 48.0928C24.5933 47.9188 24.4979 47.7673 24.3575 47.6438C24.1162 47.4024 23.712 47.2172 23.364 47.234C23.016 47.2509 22.6231 47.3688 22.3705 47.6438C22.1404 47.8964 21.9158 48.2781 21.9607 48.6373Z" fill="#B48622"/>
<path d="M14.5234 34.133C13.659 33.8748 12.7833 34.307 12.3006 35.0199C11.8852 35.6317 11.9189 36.3614 12.0255 37.0519C12.1603 37.9387 12.5251 38.82 13.0191 39.5665C13.2211 39.8696 13.4962 40.111 13.8554 40.212C14.1922 40.3019 14.6413 40.2626 14.9388 40.0717C15.2363 39.8809 15.5001 39.589 15.5843 39.2354C15.6685 38.8817 15.6516 38.4664 15.4439 38.152C15.2531 37.8601 15.0847 37.5514 14.95 37.2315L15.0903 37.5683C14.9107 37.1361 14.7872 36.687 14.7198 36.2211L14.7704 36.5916C14.7535 36.4344 14.7479 36.2829 14.7647 36.1257L14.7142 36.4962C14.7255 36.4176 14.7479 36.3446 14.7704 36.2716L14.63 36.6084C14.6581 36.5467 14.6862 36.4905 14.7255 36.4344L14.5065 36.7207C14.5458 36.6702 14.5907 36.6309 14.6356 36.586L14.3494 36.8049C14.3999 36.7656 14.4504 36.7375 14.5065 36.7095L14.1698 36.8498C14.2147 36.8329 14.254 36.8217 14.2989 36.8161L13.9284 36.8666C13.9733 36.8666 14.0126 36.8666 14.0631 36.8666L13.6926 36.8161C13.7207 36.8161 13.7544 36.8273 13.7825 36.8386C14.4841 37.0462 15.3429 36.586 15.5113 35.8563C15.6797 35.1266 15.2868 34.3519 14.529 34.1274L14.5234 34.133Z" fill="#C49026"/>
<path d="M22.0787 48.3848C22.1179 48.6766 22.146 48.9685 22.2358 49.2548C22.3256 49.5411 22.4379 49.7993 22.5726 50.0575C22.7859 50.4728 23.089 50.8601 23.4258 51.1801C23.7626 51.5 24.1555 51.7975 24.5765 51.9884C24.8403 52.1063 25.1097 52.2241 25.3904 52.2971C25.6711 52.3701 25.9742 52.4094 26.2604 52.4318C26.6028 52.4599 27.0182 52.2578 27.254 52.0221C27.4897 51.7863 27.6806 51.3765 27.6637 51.0285C27.6469 50.6805 27.529 50.2876 27.254 50.035C26.9789 49.7824 26.6477 49.6533 26.2604 49.6253C26.2099 49.6253 26.1538 49.614 26.1033 49.6084L26.4737 49.6589C26.2155 49.6253 25.9629 49.5523 25.7272 49.4512L26.064 49.5916C25.8226 49.4849 25.5981 49.3558 25.3904 49.1987L25.6767 49.4176C25.4465 49.2436 25.2445 49.0415 25.0704 48.8113L25.2894 49.0976C25.1322 48.8899 25.0031 48.6654 24.8964 48.424L25.0368 48.7608C24.9413 48.5307 24.874 48.2949 24.8403 48.048L24.8908 48.4184V48.3791C24.8908 48.1883 24.8515 48.0031 24.7673 47.8403C24.7112 47.6663 24.6158 47.5147 24.4755 47.3912C24.2341 47.1499 23.8299 46.9646 23.4819 46.9815C23.1339 46.9983 22.741 47.1162 22.4884 47.3912C22.2583 47.6438 22.0337 48.0255 22.0787 48.3848Z" fill="#C49026"/>
<path d="M47.9383 37.8938C48.0337 37.9499 48.1235 38.0173 48.2134 38.0846L47.9271 37.8657C48.1235 38.0229 48.2975 38.2025 48.4547 38.399L48.2358 38.1127C48.3986 38.326 48.5277 38.5505 48.6343 38.7975L48.494 38.4607C48.6007 38.7189 48.6736 38.9884 48.7129 39.2634L48.6624 38.8929C48.6849 39.0894 48.6905 39.2802 48.6792 39.4767C48.6568 39.8191 48.8532 40.2289 49.089 40.4702C49.3247 40.7116 49.7345 40.8968 50.0825 40.88C50.4305 40.8631 50.8235 40.7453 51.076 40.4702C51.3286 40.1952 51.4634 39.864 51.4858 39.4767C51.5363 38.6796 51.323 37.877 50.9582 37.1753C50.5933 36.4737 50.0152 35.8843 49.3528 35.4745C49.0497 35.2837 48.6119 35.2388 48.2695 35.3342C47.9271 35.4296 47.5903 35.6766 47.4331 35.9797C47.2591 36.3053 47.1749 36.6982 47.2928 37.0631C47.4107 37.4279 47.6184 37.703 47.9383 37.8994V37.8938Z" fill="#B48622"/>
<path d="M47.6856 38.0622C47.781 38.1183 47.8709 38.1857 47.9607 38.253L47.6744 38.0341C47.8709 38.1913 48.0449 38.3709 48.202 38.5674L47.9831 38.2811C48.1459 38.4944 48.275 38.7189 48.3817 38.9659L48.2413 38.6291C48.348 38.8873 48.4209 39.1568 48.4602 39.4318L48.4097 39.0613C48.4322 39.2578 48.4378 39.4486 48.4266 39.6451C48.4041 39.9875 48.6006 40.3973 48.8363 40.6386C49.0721 40.88 49.4818 41.0652 49.8298 41.0484C50.1779 41.0315 50.5708 40.9137 50.8234 40.6386C51.076 40.3636 51.2107 40.0324 51.2331 39.6451C51.2836 38.848 51.0703 38.0454 50.7055 37.3437C50.3406 36.6421 49.7625 36.0527 49.1001 35.6429C48.797 35.4521 48.3592 35.4072 48.0168 35.5026C47.6744 35.598 47.3376 35.845 47.1804 36.1481C47.0064 36.4737 46.9222 36.8666 47.0401 37.2315C47.158 37.5963 47.3657 37.8713 47.6856 38.0678V38.0622Z" fill="#C49026"/>
<path d="M22.797 36.1257C23.364 36.1762 23.9421 36.1144 24.4978 35.9909C25.0535 35.8675 25.5868 35.6429 26.0695 35.3567C26.3726 35.177 26.6196 34.8571 26.715 34.5203C26.8104 34.1835 26.7655 33.7345 26.5747 33.437C26.3838 33.1395 26.092 32.8757 25.7383 32.7915C25.3847 32.7073 24.9862 32.7353 24.655 32.9318C24.4866 33.0272 24.3182 33.117 24.1386 33.19L24.4754 33.0497C24.133 33.19 23.7737 33.291 23.4089 33.3415L23.7793 33.291C23.4538 33.3359 23.1282 33.3415 22.8027 33.3079C22.4771 33.2742 22.0449 33.4875 21.8091 33.7176C21.5678 33.959 21.3825 34.3631 21.3994 34.7111C21.4162 35.0592 21.5341 35.4521 21.8091 35.7047L22.0954 35.9236C22.3143 36.0527 22.5501 36.1144 22.8027 36.1144L22.797 36.1257Z" fill="#B48622"/>
<path d="M22.943 36.3558C23.51 36.4063 24.0881 36.3446 24.6438 36.2211C25.1995 36.0976 25.7328 35.8731 26.2155 35.5868C26.5186 35.4072 26.7656 35.0873 26.861 34.7505C26.9564 34.4137 26.9115 33.9646 26.7207 33.6671C26.5298 33.3696 26.2379 33.1058 25.8843 33.0216C25.5307 32.9374 25.1322 32.9655 24.801 33.1619C24.6326 33.2574 24.4642 33.3472 24.2846 33.4202L24.6214 33.2798C24.279 33.4202 23.9197 33.5212 23.5549 33.5717L23.9253 33.5212C23.5998 33.5661 23.2742 33.5717 22.9487 33.538C22.6231 33.5044 22.1909 33.7176 21.9551 33.9478C21.7138 34.1892 21.5285 34.5933 21.5454 34.9413C21.5622 35.2893 21.6801 35.6822 21.9551 35.9348L22.2414 36.1537C22.4603 36.2828 22.6961 36.3446 22.9487 36.3446L22.943 36.3558Z" fill="#C49026"/>
<path d="M35.1853 36.0022C36.9927 36.0022 36.9927 33.1956 35.1853 33.1956C33.3779 33.1956 33.3779 36.0022 35.1853 36.0022Z" fill="#A48930"/>
<path d="M17.6387 39.1904C19.4461 39.1904 19.4461 36.3839 17.6387 36.3839C15.8312 36.3839 15.8312 39.1904 17.6387 39.1904Z" fill="#A48930"/>
<path d="M18.7556 45.1684C20.563 45.1684 20.563 42.3619 18.7556 42.3619C16.9482 42.3619 16.9482 45.1684 18.7556 45.1684Z" fill="#A48930"/>
<path d="M28.8424 45.4603C30.6498 45.4603 30.6498 42.6537 28.8424 42.6537C27.035 42.6537 27.035 45.4603 28.8424 45.4603Z" fill="#A48930"/>
<path d="M44.1887 44.0346C45.9961 44.0346 45.9961 41.228 44.1887 41.228C42.3813 41.228 42.3813 44.0346 44.1887 44.0346Z" fill="#A48930"/>
<path d="M43.5151 33.3528C45.3225 33.3528 45.3225 30.5462 43.5151 30.5462C41.7077 30.5462 41.7077 33.3528 43.5151 33.3528Z" fill="#A48930"/>
<path d="M27.8825 33.0777C29.69 33.0777 29.69 30.2712 27.8825 30.2712C26.0751 30.2712 26.0751 33.0777 27.8825 33.0777Z" fill="#A48930"/>
<path d="M36.5997 16.9175C41.4214 17.1589 46.6472 17.5518 50.2789 20.7401C53.1529 23.2604 54.4776 27.1166 55.1343 30.883C55.791 34.6943 55.7966 38.9041 53.5907 42.0812C51.3847 45.2582 46.3273 46.5997 43.5656 43.8998C41.8536 42.2271 41.3765 39.4935 39.44 38.0959C37.4754 36.6814 34.7979 37.1585 32.3787 37.2988C29.2915 37.484 26.1706 37.0125 23.2742 35.9292C22.668 35.7047 22.0617 35.4408 21.6015 34.9862C20.2375 33.6334 20.7932 31.3657 21.3152 29.519C22.7073 24.5963 23.1844 19.421 22.7185 14.3243C22.5894 12.8929 22.4715 11.2146 23.5548 10.2772C24.032 9.86184 24.6719 9.6766 25.2949 9.57557C27.9499 9.15458 30.7845 10.1537 32.5864 12.1464C34.2759 14.0155 35.421 16.867 37.9188 17.1982L36.5997 16.9119V16.9175Z" fill="#8A6614"/>
<path d="M38.0647 15.6771C42.8864 15.9184 48.1122 16.3113 51.7439 19.4996C54.6178 22.0199 55.9425 25.8761 56.5993 29.6425C57.256 33.4538 57.2616 37.6637 55.0556 40.8407C52.8497 44.0177 47.7923 45.3593 45.0306 42.6594C43.3186 40.9866 42.8415 38.2531 40.905 36.8554C38.9404 35.4409 36.2629 35.918 33.8436 36.0583C30.7564 36.2436 27.6355 35.772 24.7391 34.6887C24.1329 34.4642 23.5267 34.2004 23.0664 33.7457C21.7024 32.3929 22.2581 30.1252 22.7802 28.2785C24.1722 23.3558 24.6493 18.1805 24.1834 13.0838C24.0543 11.6524 23.9365 9.97412 25.0198 9.03673C25.4969 8.62136 26.1368 8.43612 26.7599 8.33509C29.4149 7.9141 32.2495 8.91324 34.0513 10.9059C35.7409 12.7751 36.886 15.6265 39.3838 15.9577L38.0647 15.6714V15.6771Z" fill="#C49026"/>
<path d="M40.3774 32.668C40.5514 32.696 40.7198 32.7409 40.8769 32.8083L40.5402 32.668C40.7086 32.7409 40.8657 32.8364 41.0117 32.943L40.7254 32.7241C40.9331 32.8869 41.1183 33.0777 41.2811 33.2854L41.0622 32.9991C41.4102 33.4538 41.6684 33.9702 41.8873 34.4922L41.747 34.1555C41.7975 34.2733 41.848 34.3968 41.8929 34.5203C41.9378 34.7055 42.022 34.8627 42.1455 34.9974C42.2466 35.149 42.3757 35.2725 42.5384 35.3567C42.8415 35.5307 43.285 35.6093 43.6218 35.497C43.9586 35.3847 44.2897 35.177 44.4581 34.8515C44.6265 34.5259 44.7332 34.1162 44.5985 33.7681C44.301 33.016 43.9866 32.2414 43.4927 31.5903C43.3243 31.3713 43.1559 31.1468 42.9594 30.9504C42.763 30.7539 42.5553 30.5967 42.3364 30.4452C41.9827 30.1982 41.5449 30.0186 41.1183 29.9512C40.9331 29.8951 40.7478 29.8839 40.557 29.9288C40.3718 29.94 40.1978 29.9905 40.035 30.0972C39.7431 30.2656 39.4681 30.6023 39.3895 30.9335C39.3053 31.2928 39.3277 31.6969 39.5298 32.0169C39.715 32.3031 40.0181 32.6118 40.3662 32.6624L40.3774 32.668Z" fill="#B48622"/>
<path d="M40.1192 32.9879C40.2932 33.016 40.4616 33.0609 40.6188 33.1283L40.282 32.9879C40.4504 33.0609 40.6075 33.1563 40.7535 33.263L40.4672 33.0441C40.6749 33.2068 40.8601 33.3977 41.0229 33.6054L40.804 33.3191C41.152 33.7738 41.4102 34.2902 41.6291 34.8122L41.4888 34.4754C41.5393 34.5933 41.5898 34.7168 41.6347 34.8403C41.6797 35.0255 41.7638 35.1827 41.8873 35.3174C41.9884 35.4689 42.1175 35.5924 42.2803 35.6766C42.5834 35.8506 43.0268 35.9292 43.3636 35.8169C43.7004 35.7047 44.0315 35.497 44.1999 35.1714C44.3683 34.8459 44.475 34.4361 44.3403 34.0881C44.0428 33.3359 43.7284 32.5613 43.2345 31.9102C43.0661 31.6913 42.8977 31.4668 42.7012 31.2703C42.5048 31.0738 42.2971 30.9167 42.0782 30.7651C41.7246 30.5181 41.2867 30.3385 40.8601 30.2712C40.6749 30.215 40.4897 30.2038 40.2988 30.2487C40.1136 30.2599 39.9396 30.3105 39.7768 30.4171C39.4849 30.5855 39.2099 30.9223 39.1313 31.2535C39.0471 31.6127 39.0695 32.0168 39.2716 32.3368C39.4569 32.6231 39.76 32.9318 40.108 32.9823L40.1192 32.9879Z" fill="#C49026"/>
<path d="M46.81 21.0713C47.1524 21.2789 47.4836 21.5035 47.7979 21.7448L47.5117 21.5259C48.0505 21.9469 48.5501 22.424 48.9935 22.946C49.218 23.2042 49.6559 23.3558 49.987 23.3558C50.3182 23.3558 50.7448 23.2042 50.9806 22.946C51.2163 22.6878 51.4072 22.3286 51.3903 21.9525L51.3398 21.5821C51.2724 21.3463 51.1546 21.1386 50.9806 20.9646C50.206 20.0497 49.2517 19.2694 48.2245 18.652C47.9158 18.4668 47.4892 18.4162 47.1412 18.5117C46.8156 18.6015 46.462 18.8541 46.3048 19.1572C46.1308 19.4827 46.0466 19.8757 46.1645 20.2405C46.2824 20.6054 46.4901 20.886 46.81 21.0769V21.0713Z" fill="#B48622"/>
<path d="M46.5518 21.2003C46.8942 21.408 47.2254 21.6326 47.5397 21.8739L47.2535 21.655C47.7923 22.076 48.2919 22.5531 48.7353 23.0751C48.9599 23.3333 49.3977 23.4849 49.7289 23.4849C50.06 23.4849 50.4866 23.3333 50.7224 23.0751C50.9581 22.8169 51.149 22.4577 51.1321 22.0816L51.0816 21.7111C51.0143 21.4754 50.8964 21.2677 50.7224 21.0937C49.9478 20.1788 48.9935 19.3985 47.9663 18.7811C47.6576 18.5959 47.231 18.5453 46.883 18.6408C46.5574 18.7306 46.2038 18.9832 46.0467 19.2863C45.8726 19.6118 45.7884 20.0048 45.9063 20.3696C46.0242 20.7345 46.2319 21.0151 46.5518 21.206V21.2003Z" fill="#C49026"/>
<path d="M30.2625 10.5691C29.7966 9.80009 28.9041 9.49137 28.0453 9.68222C27.3661 9.83377 26.8609 10.3614 26.4905 10.9227C26.2098 11.3437 26.0077 11.8152 25.8281 12.2867C25.6822 12.674 25.5811 13.0725 25.525 13.4823C25.4689 13.6675 25.4577 13.8528 25.5026 14.0436C25.5138 14.2288 25.5643 14.4029 25.671 14.5656C25.8393 14.8575 26.1761 15.1326 26.5073 15.2111C26.8666 15.2953 27.2707 15.2729 27.5906 15.0708C27.8769 14.8856 28.1856 14.5825 28.2362 14.2345C28.3035 13.7517 28.4326 13.2858 28.6235 12.8368L28.4831 13.1736C28.6347 12.8256 28.8143 12.4832 29.0388 12.1857L28.8199 12.4719C28.9041 12.3653 28.9883 12.2755 29.095 12.1913L28.8087 12.4102C28.8704 12.3653 28.9266 12.3316 28.9939 12.3035L28.6571 12.4439C28.7133 12.4214 28.775 12.4046 28.8311 12.3934L28.4607 12.4439C28.5224 12.4383 28.5842 12.4383 28.6459 12.4439L28.2754 12.3934C28.3372 12.4046 28.3933 12.4158 28.4495 12.4383L28.1127 12.2979C28.1576 12.3204 28.1969 12.3428 28.2362 12.3709L27.9499 12.152C27.9499 12.152 28.0004 12.1969 28.0229 12.225L27.8039 11.9387C27.8039 11.9387 27.832 11.978 27.8432 12.0004C28.0285 12.3035 28.3372 12.5505 28.6796 12.6459C29.022 12.7414 29.4654 12.6965 29.7629 12.5056C30.0604 12.3148 30.3242 12.0229 30.4084 11.6693C30.4926 11.3156 30.4646 10.9171 30.2681 10.5859L30.2625 10.5691Z" fill="#B48622"/>
<path d="M26.1594 26.8977C25.0255 28.5816 25.323 30.9784 26.7094 32.421C27.2202 32.9542 28.1857 32.9711 28.6965 32.421C29.2073 31.8709 29.241 31.0009 28.6965 30.4339C28.6235 30.3554 28.5505 30.2768 28.4832 30.1926L28.7021 30.4788C28.5505 30.2768 28.4271 30.0635 28.326 29.8333L28.4664 30.1701C28.3541 29.9007 28.2811 29.6257 28.2474 29.3394L28.298 29.7099C28.2643 29.4236 28.2643 29.1373 28.298 28.851L28.2474 29.2215C28.2867 28.9521 28.3597 28.6995 28.4607 28.4469L28.3204 28.7837C28.3934 28.6209 28.4776 28.4637 28.5786 28.3122C28.7751 28.0203 28.8088 27.56 28.7189 27.2288C28.6291 26.8977 28.3765 26.5497 28.0734 26.3925C27.3662 26.0164 26.5916 26.2466 26.1537 26.8977H26.1594Z" fill="#B48622"/>
<path d="M30.4029 10.9396C29.937 10.1706 29.0445 9.86185 28.1857 10.0527C27.5065 10.2043 27.0013 10.7319 26.6309 11.2932C26.3502 11.7142 26.1481 12.1857 25.9685 12.6572C25.8226 13.0445 25.7215 13.443 25.6654 13.8528C25.6093 14.038 25.598 14.2233 25.6429 14.4141C25.6542 14.5993 25.7047 14.7733 25.8113 14.9361C25.9797 15.228 26.3165 15.503 26.6477 15.5816C27.0069 15.6658 27.4111 15.6434 27.731 15.4413C28.0173 15.2561 28.326 14.953 28.3765 14.6049C28.4439 14.1222 28.573 13.6563 28.7638 13.2073L28.6235 13.5441C28.7751 13.196 28.9547 12.8536 29.1792 12.5562L28.9603 12.8424C29.0445 12.7358 29.1287 12.646 29.2353 12.5618L28.9491 12.7807C29.0108 12.7358 29.0669 12.7021 29.1343 12.674L28.7975 12.8144C28.8537 12.7919 28.9154 12.7751 28.9715 12.7638L28.6011 12.8144C28.6628 12.8087 28.7245 12.8087 28.7863 12.8144L28.4158 12.7638C28.4776 12.7751 28.5337 12.7863 28.5898 12.8087L28.253 12.6684C28.298 12.6909 28.3372 12.7133 28.3765 12.7414L28.0903 12.5225C28.0903 12.5225 28.1408 12.5674 28.1632 12.5954L27.9443 12.3092C27.9443 12.3092 27.9724 12.3485 27.9836 12.3709C28.1688 12.674 28.4776 12.921 28.82 13.0164C29.1624 13.1119 29.6058 13.0669 29.9033 12.8761C30.2008 12.6853 30.4646 12.3934 30.5488 12.0397C30.633 11.6861 30.6049 11.2876 30.4085 10.9564L30.4029 10.9396Z" fill="#C49026"/>
<path d="M26.4119 26.7798C25.2781 28.4638 25.5756 30.8606 26.962 32.3031C27.4728 32.8364 28.4383 32.8532 28.9491 32.3031C29.4598 31.753 29.4935 30.883 28.9491 30.3161C28.8761 30.2375 28.8031 30.1589 28.7358 30.0747L28.9547 30.361C28.8031 30.1589 28.6796 29.9456 28.5786 29.7155L28.7189 30.0523C28.6067 29.7828 28.5337 29.5078 28.5 29.2215L28.5505 29.592C28.5168 29.3057 28.5168 29.0195 28.5505 28.7332L28.5 29.1036C28.5393 28.8342 28.6123 28.5816 28.7133 28.329L28.573 28.6658C28.6459 28.503 28.7301 28.3459 28.8312 28.1943C29.0276 27.9024 29.0613 27.4422 28.9715 27.111C28.8817 26.7798 28.6291 26.4318 28.326 26.2746C27.6187 25.8986 26.8441 26.1287 26.4063 26.7798H26.4119Z" fill="#C49026"/>
<path d="M52.8722 35.7833C52.9172 35.9292 52.9508 36.0808 52.9733 36.2323L52.9228 35.8619C52.9564 36.1369 52.9564 36.412 52.9228 36.6814L52.9733 36.3109C52.934 36.586 52.861 36.8498 52.76 37.108L52.9003 36.7712C52.7993 37.0126 52.6702 37.2371 52.513 37.4448L52.7319 37.1585C52.6477 37.2651 52.5579 37.3718 52.4569 37.4672C52.2043 37.7198 52.0471 38.1015 52.0471 38.4607C52.0471 38.82 52.1987 39.2185 52.4569 39.4543C52.7151 39.69 53.0743 39.8809 53.4504 39.864C53.8265 39.8472 54.1745 39.7181 54.4439 39.4543C55.5778 38.3316 56.0381 36.5803 55.5778 35.0423C55.4767 34.6999 55.2466 34.3856 54.9323 34.206C54.6179 34.0264 54.1857 33.9534 53.8489 34.0657C53.5121 34.1779 53.181 34.3856 53.0126 34.7112C52.8442 35.0367 52.76 35.424 52.8722 35.7945V35.7833Z" fill="#B48622"/>
<path d="M52.5691 35.7384C52.6141 35.8843 52.6477 36.0359 52.6702 36.1874L52.6197 35.8169C52.6533 36.092 52.6533 36.367 52.6197 36.6365L52.6702 36.266C52.6309 36.541 52.5579 36.8049 52.4569 37.0631L52.5972 36.7263C52.4962 36.9676 52.3671 37.1922 52.2099 37.3998L52.4288 37.1136C52.3446 37.2202 52.2548 37.3269 52.1538 37.4223C51.9012 37.6749 51.744 38.0566 51.744 38.4158C51.744 38.7751 51.8956 39.1736 52.1538 39.4093C52.412 39.6451 52.7712 39.8359 53.1473 39.8191C53.5234 39.8023 53.8714 39.6732 54.1408 39.4093C55.2747 38.2867 55.735 36.5354 55.2747 34.9974C55.1736 34.655 54.9435 34.3407 54.6292 34.1611C54.3148 33.9815 53.8826 33.9085 53.5458 34.0207C53.209 34.133 52.8779 34.3407 52.7095 34.6663C52.5411 34.9918 52.4569 35.3791 52.5691 35.7496V35.7384Z" fill="#C49026"/>
<path d="M35.174 17.7988C35.3704 18.0065 35.5837 18.1861 35.8083 18.3602C36.0328 18.5342 36.2573 18.6969 36.5043 18.8373C36.9926 19.1067 37.5371 19.3256 38.0872 19.4323C38.2724 19.4884 38.4577 19.4996 38.6485 19.4547C38.8337 19.4435 39.0077 19.393 39.1705 19.2863C39.4624 19.1179 39.7375 18.7811 39.816 18.45C39.9002 18.0907 39.8778 17.6866 39.6757 17.3666C39.4849 17.0748 39.193 16.7885 38.8394 16.7211C38.5475 16.665 38.2668 16.5808 37.9918 16.4629L38.3286 16.6032C37.9862 16.4573 37.6662 16.2721 37.3743 16.0419L37.6606 16.2608C37.4866 16.1205 37.3238 15.9746 37.1723 15.8118C36.9309 15.5536 36.5267 15.402 36.1787 15.402C35.8307 15.402 35.421 15.5536 35.1852 15.8118C34.9495 16.07 34.7586 16.4292 34.7754 16.8053C34.7923 17.1814 34.9214 17.5182 35.1852 17.7988H35.174Z" fill="#B48622"/>
<path d="M35.1347 18.0739C35.3311 18.2816 35.5444 18.4612 35.769 18.6352C35.9935 18.8092 36.218 18.972 36.465 19.1123C36.9533 19.3817 37.4978 19.6006 38.0479 19.7073C38.2331 19.7634 38.4184 19.7746 38.6092 19.7297C38.7944 19.7185 38.9684 19.668 39.1312 19.5613C39.4231 19.393 39.6981 19.0562 39.7767 18.725C39.8609 18.3658 39.8385 17.9616 39.6364 17.6417C39.4456 17.3498 39.1537 17.0635 38.8 16.9961C38.5082 16.94 38.2275 16.8558 37.9525 16.7379L38.2893 16.8783C37.9469 16.7323 37.6269 16.5471 37.335 16.317L37.6213 16.5359C37.4473 16.3955 37.2845 16.2496 37.1329 16.0868C36.8916 15.8286 36.4874 15.6771 36.1394 15.6771C35.7914 15.6771 35.3817 15.8286 35.1459 16.0868C34.9102 16.345 34.7193 16.7043 34.7361 17.0803C34.753 17.4564 34.8821 17.7932 35.1459 18.0739H35.1347Z" fill="#C49026"/>
<path d="M45.5246 26.3308C47.3321 26.3308 47.3321 23.5242 45.5246 23.5242C43.7172 23.5242 43.7172 26.3308 45.5246 26.3308Z" fill="#A48930"/>
<path d="M30.2738 17.0859C32.0812 17.0859 32.0812 14.2794 30.2738 14.2794C28.4664 14.2794 28.4664 17.0859 30.2738 17.0859Z" fill="#A48930"/>
<path d="M27.1472 22.3005C28.9546 22.3005 28.9546 19.494 27.1472 19.494C25.3398 19.494 25.3398 22.3005 27.1472 22.3005Z" fill="#A48930"/>
<path d="M34.5061 29.2047C36.3135 29.2047 36.3135 26.3981 34.5061 26.3981C32.6987 26.3981 32.6987 29.2047 34.5061 29.2047Z" fill="#A48930"/>
<path d="M46.9391 38.3148C48.7465 38.3148 48.7465 35.5082 46.9391 35.5082C45.1316 35.5082 45.1316 38.3148 46.9391 38.3148Z" fill="#A48930"/>
<path d="M53.5233 29.867C55.3307 29.867 55.3307 27.0605 53.5233 27.0605C51.7159 27.0605 51.7159 29.867 53.5233 29.867Z" fill="#A48930"/>
<path d="M41.994 19.3031C43.8014 19.3031 43.8014 16.4966 41.994 16.4966C40.1866 16.4966 40.1866 19.3031 41.994 19.3031Z" fill="#A48930"/>
<path d="M16.5329 28.8061C16.0614 24.0013 15.6909 18.7698 18.3122 14.7171C20.3891 11.5064 24.004 9.62604 27.6356 8.43606C31.3066 7.22362 35.4772 6.60618 38.9405 8.32941C42.4038 10.0526 44.475 14.8519 42.2017 17.984C40.7984 19.9205 38.1659 20.7905 37.0657 22.9179C35.9543 25.0677 36.8187 27.6498 37.3127 30.0185C37.947 33.044 37.9413 36.2042 37.2902 39.2241C37.1555 39.8527 36.9815 40.4982 36.5998 41.0146C35.4603 42.5583 33.1365 42.345 31.2337 42.098C26.1594 41.4412 20.9673 41.7275 15.9996 42.9343C14.6076 43.2711 12.9629 43.6304 11.874 42.6986C11.3913 42.2832 11.1162 41.6826 10.9254 41.0764C10.1227 38.5112 10.6952 35.5587 12.4016 33.4874C14.0014 31.5397 16.6564 29.9905 16.6227 27.4702L16.5329 28.8173V28.8061Z" fill="#8A6614"/>
<path d="M15.0959 27.5432C14.6244 22.7383 14.2539 17.5069 16.8752 13.4542C18.9521 10.2435 22.5669 8.3631 26.1986 7.17312C29.8696 5.96068 34.0402 5.34324 37.5035 7.06647C40.9668 8.7897 43.038 13.5889 40.7647 16.721C39.3614 18.6576 36.7289 19.5276 35.6287 21.655C34.5173 23.8048 35.3817 26.3868 35.8757 28.7556C36.5099 31.7811 36.5043 34.9413 35.8532 37.9611C35.7185 38.5898 35.5445 39.2353 35.1628 39.7517C34.0233 41.2953 31.6995 41.082 29.7966 40.835C24.7224 40.1783 19.5302 40.4646 14.5626 41.6714C13.1706 42.0082 11.5259 42.3674 10.437 41.4356C9.95424 41.0203 9.6792 40.4197 9.48836 39.8134C8.68568 37.2482 9.25822 34.2957 10.9646 32.2245C12.5643 30.2767 15.2194 28.7275 15.1857 26.2072L15.0959 27.5544V27.5432Z" fill="#C49026"/>
<path d="M31.576 22.598C31.576 22.5026 31.5816 22.4128 31.5928 22.3174L31.5423 22.6878C31.5704 22.5082 31.6153 22.3342 31.6882 22.1658L31.5479 22.5026C31.6377 22.3005 31.75 22.1097 31.8903 21.9301L31.6714 22.2163C31.9015 21.9244 32.1766 21.6719 32.4741 21.4417L32.1878 21.6606C32.547 21.3856 32.9287 21.1498 33.3217 20.9197C33.6248 20.7457 33.8717 20.4201 33.9672 20.0833C34.0626 19.7465 34.0177 19.2975 33.8268 19C33.636 18.7025 33.3441 18.4387 32.9905 18.3545C32.6369 18.2703 32.2439 18.304 31.9071 18.4948C31.2055 18.899 30.5039 19.3536 29.9426 19.9374C29.2465 20.6559 28.7806 21.5764 28.775 22.5924C28.775 22.9516 28.9322 23.3277 29.1848 23.5859C29.4374 23.8441 29.8303 24.0125 30.1783 23.9957C30.9417 23.962 31.5816 23.3782 31.5816 22.5924L31.576 22.598Z" fill="#B48622"/>
<path d="M31.924 22.8057C31.924 22.7102 31.9296 22.6204 31.9408 22.525L31.8903 22.8955C31.9184 22.7158 31.9633 22.5418 32.0363 22.3734L31.8959 22.7102C31.9857 22.5082 32.098 22.3173 32.2383 22.1377L32.0194 22.424C32.2496 22.1321 32.5246 21.8795 32.8221 21.6494L32.5358 21.8683C32.8951 21.5932 33.2768 21.3575 33.6697 21.1273C33.9728 20.9533 34.2198 20.6278 34.3152 20.291C34.4106 19.9542 34.3657 19.5051 34.1749 19.2076C33.984 18.9102 33.6921 18.6463 33.3385 18.5621C32.9849 18.4779 32.592 18.5116 32.2552 18.7025C31.5535 19.1066 30.8519 19.5613 30.2906 20.145C29.5946 20.8635 29.1287 21.7841 29.123 22.8C29.123 23.1593 29.2802 23.5354 29.5328 23.7936C29.7854 24.0518 30.1783 24.2202 30.5263 24.2033C31.2897 24.1696 31.9296 23.5859 31.9296 22.8L31.924 22.8057Z" fill="#C49026"/>
<path d="M19.199 17.9503C19.2102 17.9223 19.2215 17.8942 19.2383 17.8605L19.098 18.1973C19.4291 17.4171 19.8614 16.6874 20.3722 16.0138L20.1532 16.3001C20.2823 16.1373 20.4114 15.9745 20.5462 15.823C20.7931 15.5423 20.9559 15.2167 20.9559 14.8294C20.9559 14.487 20.8044 14.0717 20.5462 13.8359C20.288 13.6002 19.9287 13.4093 19.5526 13.4261C19.1766 13.443 18.8061 13.5609 18.5591 13.8359C18.1269 14.3299 17.7171 14.8631 17.3691 15.4244C17.0211 15.9857 16.7405 16.5919 16.4879 17.2038C16.3588 17.5181 16.4654 18.0065 16.6282 18.2871C16.7966 18.579 17.1334 18.854 17.4646 18.9326C17.8238 19.0168 18.2279 18.9944 18.5479 18.7923L18.8342 18.5734C19.0082 18.3994 19.126 18.1917 19.1934 17.9559L19.199 17.9503Z" fill="#B48622"/>
<path d="M19.3675 18.186C19.3787 18.158 19.3899 18.1299 19.4068 18.0962L19.2664 18.433C19.5976 17.6528 20.0298 16.9231 20.5406 16.2495L20.3217 16.5358C20.4508 16.373 20.5799 16.2102 20.7146 16.0587C20.9616 15.778 21.1244 15.4525 21.1244 15.0651C21.1244 14.7227 20.9728 14.3074 20.7146 14.0716C20.4564 13.8359 20.0972 13.645 19.7211 13.6619C19.345 13.6787 18.9745 13.7966 18.7276 14.0716C18.2954 14.5656 17.8856 15.0988 17.5376 15.6601C17.1896 16.2214 16.9089 16.8277 16.6563 17.4395C16.5272 17.7538 16.6339 18.2422 16.7967 18.5228C16.965 18.8147 17.3018 19.0898 17.633 19.1683C17.9922 19.2525 18.3964 19.2301 18.7163 19.028L19.0026 18.8091C19.1766 18.6351 19.2945 18.4274 19.3619 18.1917L19.3675 18.186Z" fill="#C49026"/>
<path d="M11.0657 36.1088C10.9253 36.2267 10.8187 36.3782 10.7289 36.5298C10.6391 36.6813 10.5661 36.8666 10.5268 37.0406C10.4482 37.4054 10.4482 37.7871 10.5661 38.1464C10.7738 38.7863 11.2677 39.297 11.874 39.5833C12.8338 40.038 13.8666 40.285 14.9331 40.2793C15.2924 40.2793 15.6684 40.1222 15.9266 39.8696C16.1848 39.617 16.3532 39.2241 16.3364 38.8761C16.3027 38.1183 15.719 37.4672 14.9331 37.4728C14.6637 37.4728 14.3943 37.4559 14.1248 37.4223L14.4953 37.4728C14.0294 37.4054 13.5747 37.2819 13.1425 37.1023L13.4793 37.2426C13.2885 37.1641 13.1032 37.0742 12.9405 36.9508L13.2267 37.1697C13.1538 37.1135 13.092 37.0518 13.0303 36.9788L13.2492 37.2651C13.2099 37.209 13.1706 37.1528 13.1425 37.0855L13.2829 37.4223C13.2604 37.3605 13.2436 37.2988 13.238 37.237L13.2885 37.6075C13.2885 37.557 13.2885 37.5065 13.2885 37.4559L13.238 37.8264C13.2492 37.7647 13.2604 37.7085 13.2885 37.6468L13.1481 37.9836C13.165 37.9499 13.1818 37.9218 13.2043 37.8882L12.9854 38.1744C13.0078 38.1464 13.0359 38.1183 13.0639 38.0958C13.3278 37.8769 13.4737 37.4335 13.4737 37.1023C13.4737 36.7599 13.3222 36.3445 13.0639 36.1088C12.8057 35.873 12.4465 35.6822 12.0704 35.699L11.7 35.7496C11.4642 35.8169 11.2565 35.9348 11.0825 36.1088H11.0657Z" fill="#B48622"/>
<path d="M27.7479 37.585C28.2924 37.8489 28.7919 37.9836 29.3925 38.0453C29.864 38.0958 30.358 38.0397 30.8183 37.9331C31.7051 37.731 32.6145 37.209 33.1758 36.4793C33.4115 36.1705 33.5855 35.8955 33.5855 35.4857C33.5855 35.1433 33.434 34.728 33.1758 34.4922C32.9176 34.2565 32.5583 34.0656 32.1822 34.0825C31.8398 34.0993 31.4133 34.2059 31.1887 34.4922C31.0428 34.6831 30.8688 34.8515 30.6835 35.003L30.9698 34.7841C30.7509 34.9525 30.5095 35.0872 30.2569 35.1995L30.5937 35.0591C30.3355 35.1658 30.0717 35.2331 29.7967 35.2781L30.1671 35.2275C29.8921 35.2612 29.6171 35.2668 29.342 35.2275L29.7125 35.2781C29.4543 35.2444 29.2073 35.177 28.9659 35.0816L29.3027 35.2219C29.2578 35.1995 29.2073 35.1826 29.1624 35.1602C28.8144 34.9974 28.4607 34.9132 28.0791 35.0198C27.7535 35.1097 27.3999 35.3622 27.2427 35.6654C27.0687 35.9909 26.9845 36.3838 27.1024 36.7487C27.209 37.0799 27.4223 37.4335 27.7479 37.585Z" fill="#B48622"/>
<path d="M11.4137 35.9179C11.2734 36.0358 11.1667 36.1874 11.0769 36.3389C10.9871 36.4905 10.9141 36.6757 10.8748 36.8497C10.7963 37.2146 10.7963 37.5963 10.9141 37.9555C11.1218 38.5954 11.6158 39.1062 12.222 39.3925C13.1818 39.8471 14.2146 40.0941 15.2811 40.0885C15.6404 40.0885 16.0165 39.9313 16.2747 39.6787C16.5329 39.4261 16.7013 39.0332 16.6844 38.6852C16.6507 37.9274 16.067 37.2763 15.2811 37.2819C15.0117 37.2819 14.7423 37.2651 14.4729 37.2314L14.8433 37.2819C14.3774 37.2146 13.9228 37.0911 13.4906 36.9115L13.8273 37.0518C13.6365 36.9732 13.4513 36.8834 13.2885 36.7599L13.5747 36.9788C13.5018 36.9227 13.44 36.8609 13.3783 36.788L13.5972 37.0742C13.5579 37.0181 13.5186 36.962 13.4906 36.8946L13.6309 37.2314C13.6084 37.1697 13.5916 37.1079 13.586 37.0462L13.6365 37.4166C13.6365 37.3661 13.6365 37.3156 13.6365 37.2651L13.586 37.6356C13.5972 37.5738 13.6084 37.5177 13.6365 37.4559L13.4962 37.7927C13.513 37.759 13.5298 37.731 13.5523 37.6973L13.3334 37.9836C13.3558 37.9555 13.3839 37.9274 13.412 37.905C13.6758 37.6861 13.8217 37.2426 13.8217 36.9115C13.8217 36.5691 13.6702 36.1537 13.412 35.9179C13.1538 35.6822 12.7945 35.4913 12.4184 35.5082L12.048 35.5587C11.8122 35.6261 11.6045 35.7439 11.4305 35.9179H11.4137Z" fill="#C49026"/>
<path d="M27.5963 37.3493C28.1407 37.6131 28.6403 37.7478 29.2409 37.8095C29.7124 37.8601 30.2064 37.8039 30.6666 37.6973C31.5535 37.4952 32.4628 36.9732 33.0242 36.2435C33.2599 35.9348 33.4339 35.6597 33.4339 35.25C33.4339 34.9076 33.2824 34.4922 33.0242 34.2564C32.766 34.0207 32.4067 33.8298 32.0306 33.8467C31.6882 33.8635 31.2616 33.9702 31.0371 34.2564C30.8912 34.4473 30.7172 34.6157 30.5319 34.7672L30.8182 34.5483C30.5993 34.7167 30.3579 34.8514 30.1053 34.9637L30.4421 34.8234C30.1839 34.93 29.9201 34.9974 29.6451 35.0423L30.0155 34.9918C29.7405 35.0254 29.4654 35.031 29.1904 34.9918L29.5609 35.0423C29.3027 35.0086 29.0557 34.9412 28.8143 34.8458L29.1511 34.9861C29.1062 34.9637 29.0557 34.9468 29.0108 34.9244C28.6628 34.7616 28.3091 34.6774 27.9274 34.7841C27.6019 34.8739 27.2483 35.1265 27.0911 35.4296C26.9171 35.7551 26.8329 36.1481 26.9508 36.5129C27.0574 36.8441 27.2707 37.1977 27.5963 37.3493Z" fill="#C49026"/>
<path d="M32.9624 9.88425C33.0073 9.8618 33.0466 9.84496 33.0915 9.82812L32.7547 9.96845C32.9905 9.87303 33.2375 9.80567 33.49 9.77199L33.1196 9.82251C33.4059 9.78321 33.6921 9.78883 33.9784 9.82251L33.6079 9.77199C33.8774 9.81128 34.1356 9.88425 34.3881 9.9909L34.0514 9.85057C34.2703 9.946 34.478 10.0639 34.6688 10.2098C34.9382 10.4119 35.4378 10.44 35.7521 10.3501C36.0665 10.2603 36.4313 10.0077 36.5885 9.70463C36.7625 9.37907 36.8467 8.98615 36.7288 8.6213L36.5885 8.28451C36.465 8.07121 36.2966 7.90843 36.0833 7.77933C35.4378 7.2966 34.6464 7.07769 33.8549 6.9991C33.0635 6.92052 32.2608 7.12259 31.5423 7.45938C31.2392 7.59971 30.981 7.98701 30.8968 8.29574C30.807 8.63252 30.8463 9.08157 31.0371 9.37907C31.228 9.67657 31.5198 9.94038 31.8735 10.0246L32.2439 10.0751C32.4965 10.0751 32.7323 10.0077 32.9512 9.88425H32.9624Z" fill="#B48622"/>
<path d="M32.9624 10.1874C33.0073 10.1649 33.0466 10.1481 33.0915 10.1312L32.7547 10.2715C32.9905 10.1761 33.2375 10.1088 33.49 10.0751L33.1196 10.1256C33.4059 10.0863 33.6921 10.0919 33.9784 10.1256L33.6079 10.0751C33.8774 10.1144 34.1356 10.1874 34.3881 10.294L34.0514 10.1537C34.2703 10.2491 34.478 10.367 34.6688 10.5129C34.9382 10.715 35.4378 10.7431 35.7521 10.6532C36.0665 10.5634 36.4313 10.3108 36.5885 10.0077C36.7625 9.68217 36.8467 9.28925 36.7288 8.9244L36.5885 8.58761C36.465 8.37431 36.2966 8.21153 36.0833 8.08243C35.4378 7.5997 34.6464 7.38079 33.8549 7.3022C33.0635 7.22362 32.2608 7.42569 31.5423 7.76248C31.2392 7.90281 30.981 8.29012 30.8968 8.59884C30.807 8.93562 30.8463 9.38467 31.0371 9.68217C31.228 9.97967 31.5198 10.2435 31.8735 10.3277L32.2439 10.3782C32.4965 10.3782 32.7323 10.3108 32.9512 10.1874H32.9624Z" fill="#C49026"/>
<path d="M17.4814 30.243C17.6947 29.9792 17.9024 29.7098 18.0708 29.4179C18.2392 29.126 18.3739 28.8061 18.4918 28.4918C18.6939 27.9529 18.7893 27.3691 18.8117 26.7966C18.8286 26.4486 18.6434 26.05 18.402 25.8031C18.1606 25.5561 17.7565 25.3765 17.4085 25.3933C17.0604 25.4101 16.6675 25.528 16.4149 25.8031C16.1623 26.0781 16.022 26.4093 16.0052 26.7966C16.0052 26.9201 15.9883 27.0436 15.9715 27.1671L16.022 26.7966C15.9715 27.1783 15.8705 27.5487 15.7189 27.9024L15.8592 27.5656C15.7189 27.8911 15.5393 28.1999 15.326 28.4861L15.5449 28.1999C15.5449 28.1999 15.5112 28.2448 15.4944 28.2616C15.3597 28.3907 15.2586 28.5367 15.2025 28.7107C15.1127 28.8791 15.0734 29.0587 15.079 29.2495C15.079 29.5919 15.2306 30.0073 15.4888 30.243C15.747 30.4788 16.1062 30.6696 16.4823 30.6528C16.8303 30.636 17.2457 30.5293 17.4758 30.243H17.4814Z" fill="#B48622"/>
<path d="M17.7565 30.243C17.9698 29.9792 18.1774 29.7098 18.3458 29.4179C18.5142 29.126 18.6489 28.8061 18.7668 28.4918C18.9689 27.9529 19.0643 27.3691 19.0868 26.7966C19.1036 26.4486 18.9184 26.05 18.677 25.8031C18.4356 25.5561 18.0315 25.3765 17.6835 25.3933C17.3355 25.4101 16.9426 25.528 16.69 25.8031C16.4374 26.0781 16.297 26.4093 16.2802 26.7966C16.2802 26.9201 16.2634 27.0436 16.2465 27.1671L16.297 26.7966C16.2465 27.1783 16.1455 27.5487 15.9939 27.9024L16.1343 27.5656C15.9939 27.8911 15.8143 28.1999 15.601 28.4861L15.8199 28.1999C15.8199 28.1999 15.7863 28.2448 15.7694 28.2616C15.6347 28.3907 15.5337 28.5367 15.4775 28.7107C15.3877 28.8791 15.3484 29.0587 15.354 29.2495C15.354 29.5919 15.5056 30.0073 15.7638 30.243C16.022 30.4788 16.3812 30.6696 16.7573 30.6528C17.1053 30.636 17.5207 30.5293 17.7508 30.243H17.7565Z" fill="#C49026"/>
<path d="M23.1564 20.2068C24.9638 20.2068 24.9638 17.4002 23.1564 17.4002C21.3489 17.4002 21.3489 20.2068 23.1564 20.2068Z" fill="#A48930"/>
<path d="M16.2353 36.6476C18.0428 36.6476 18.0428 33.8411 16.2353 33.8411C14.4279 33.8411 14.4279 36.6476 16.2353 36.6476Z" fill="#A48930"/>
<path d="M21.8541 38.9771C23.6615 38.9771 23.6615 36.1705 21.8541 36.1705C20.0467 36.1705 20.0467 38.9771 21.8541 38.9771Z" fill="#A48930"/>
<path d="M27.6075 30.6921C29.4149 30.6921 29.4149 27.8856 27.6075 27.8856C25.8001 27.8856 25.8001 30.6921 27.6075 30.6921Z" fill="#A48930"/>
<path d="M34.798 17.0578C36.6054 17.0578 36.6054 14.2513 34.798 14.2513C32.9905 14.2513 32.9905 17.0578 34.798 17.0578Z" fill="#A48930"/>
<path d="M25.4858 11.7815C27.2932 11.7815 27.2932 8.97491 25.4858 8.97491C23.6784 8.97491 23.6784 11.7815 25.4858 11.7815Z" fill="#A48930"/>
<path d="M16.7181 24.731C18.5255 24.731 18.5255 21.9244 16.7181 21.9244C14.9107 21.9244 14.9107 24.731 16.7181 24.731Z" fill="#A48930"/>
</g>
<defs>
<clipPath id="clip0_47_3138">
<rect width="47.9754" height="52" fill="white" transform="translate(9 6)"/>
</clipPath>
</defs>
</svg>
